*
G04 Mass Parameters ***
*
G04 Image ***
*
%IND:\UTENTI\00.CAD\00.PROGETTI\METALTRONICA\22-302-0 (DIMOBIS)\22-302-0.SPT*%
%ICAS*%
%MOIN*%
%IPPOS*%
%ASAXBY*%
G74*%FSLAN2X34Y34*%
*
G04 Aperture Definitions ***
*
%AMTHERMAL76*
1,1,0.1211,0,0,*
1,0,0.0972,0,0,*
21,0,0.1212,0.0100,0,0,135.0*
21,0,0.1212,0.0100,0,0,225.0*%
%AMTHERMAL81*
1,1,0.1172,0,0,*
1,0,0.0933,0,0,*
21,0,0.1173,0.0100,0,0,45.0*
21,0,0.1173,0.0100,0,0,135.0*%
%AMTHERMAL85*
1,1,0.1172,0,0,*
1,0,0.0933,0,0,*
21,0,0.1173,0.0100,0,0,225.0*
21,0,0.1173,0.0100,0,0,315.0*%
%AMTHERMAL93*
1,1,0.1054,0,0,*
1,0,0.0815,0,0,*
21,0,0.1055,0.0100,0,0,135.0*
21,0,0.1055,0.0100,0,0,225.0*%
%AMTHERMAL96*
1,1,0.1172,0,0,*
1,0,0.0933,0,0,*
21,0,0.1173,0.0100,0,0,315.0*
21,0,0.1173,0.0100,0,0,45.0*%
%ADD10C,0.0394*%
%ADD11R,0.1024X0.0510*%
%ADD12R,0.0380X0.0320*%
%ADD13R,0.0510X0.1024*%
%ADD14R,0.0320X0.0380*%
%ADD15R,0.0787X0.1614*%
%ADD16R,0.0787X0.0787*%
%ADD17R,0.0850X0.1080*%
%ADD18R,0.0197X0.0315*%
%ADD19R,0.0315X0.0197*%
%ADD20R,0.0501X0.0404*%
%ADD21R,0.1500X0.1670*%
%ADD22R,0.1220X0.0905*%
%ADD23C,0.1000*%
%ADD24C,0.0512*%
%ADD25C,0.0866*%
%ADD26C,0.0669*%
%ADD27C,0.0800*%
%ADD28R,0.0800X0.0800*%
%ADD29C,0.0787*%
%ADD30O,0.0630X0.0787*%
%ADD31R,0.1000X0.1000*%
%ADD32R,0.0649X0.0512*%
%ADD33R,0.0118X0.0394*%
%ADD34R,0.0236X0.0413*%
%ADD35C,0.1968*%
%ADD36R,0.0400X0.0500*%
%ADD37R,0.0710X0.0400*%
%ADD38R,0.0760X0.1200*%
%ADD39R,0.0799X0.0799*%
%ADD40R,0.0600X0.1000*%
%ADD41R,0.2760X0.2760*%
%ADD42O,0.0256X0.0650*%
%ADD43R,0.0354X0.0512*%
%ADD44R,0.0236X0.0512*%
%ADD45O,0.0118X0.0701*%
%ADD46R,0.0669X0.0276*%
%ADD47R,0.0165X0.0354*%
%ADD48R,0.0177X0.0590*%
%ADD49C,0.0276*%
%ADD50C,0.0060*%
%ADD51C,0.0100*%
%ADD52C,0.0276*%
%ADD53C,0.0080*%
%ADD54C,0.0120*%
%ADD55C,0.0300*%
%ADD56C,0.0800*%
%ADD57C,0.0276*%
%ADD58C,0.0500*%
%ADD59C,0.0250*%
%ADD60C,0.0600*%
%ADD61C,0.0150*%
%ADD62C,0.0110*%
%ADD63C,0.0276*%
%ADD64R,0.1080X0.0850*%
%ADD65R,0.0550X0.0350*%
%ADD66R,0.0250X0.0350*%
%ADD67R,0.0350X0.0250*%
%ADD68R,0.0500X0.0400*%
%ADD69R,0.0570X0.0590*%
%ADD70O,0.0110X0.0700*%
%ADD71R,0.0110X0.0700*%
%ADD72O,0.0700X0.0110*%
%ADD73R,0.0700X0.0110*%
%ADD74R,0.0394X0.0197*%
%ADD75C,0.0400*%
%ADD76THERMAL76*%
%ADD77C,0.1181*%
%ADD78C,0.0800*%
%ADD79C,0.1024*%
%ADD80C,0.0866*%
%ADD81THERMAL81*%
%ADD82C,0.1100*%
%ADD83R,0.1100X0.1100*%
%ADD84C,0.1027*%
%ADD85THERMAL85*%
%ADD86C,0.1027*%
%ADD87C,0.0800*%
%ADD88C,0.0984*%
%ADD89C,0.1300*%
%ADD90R,0.1300X0.1300*%
%ADD91C,0.2165*%
%ADD92C,0.2362*%
%ADD93THERMAL93*%
%ADD94C,0.1027*%
%ADD95C,0.0984*%
%ADD96THERMAL96*%
%ADD97R,0.1027X0.1027*%
%ADD98C,0.0050*%
%ADD99C,0.1100*%
%ADD100C,0.0050*%
%ADD101C,0.0394*%
%ADD102C,0.0197*%
%ADD103C,0.0394*%
%ADD104C,0.0050*%
%ADD105C,0.0590*%
%ADD106C,0.0709*%
*
G04 Plot Data ***
*
G54D50*
G01X-0041366Y0015000D02*
Y0014500D01*
X-0041420Y0015000D02*
Y0014500D01*
X-0041474Y0015000D02*
Y0014500D01*
X-0041528Y0015000D02*
Y0014500D01*
X-0041582Y0015000D02*
Y0014500D01*
X-0041636Y0015000D02*
Y0014500D01*
X-0041690Y0015000D02*
Y0014500D01*
X-0041744Y0015000D02*
Y0014500D01*
X-0041798Y0015000D02*
Y0014500D01*
X-0041852Y0015000D02*
Y0014500D01*
X-0041906Y0015000D02*
Y0014500D01*
X-0041960Y0015000D02*
Y0014500D01*
X-0039500Y0014972D02*
X-0042000D01*
X-0039500Y0014918D02*
X-0042000D01*
X-0039500Y0014864D02*
X-0042000D01*
X-0039500Y0014810D02*
X-0042000D01*
X-0039500Y0014756D02*
X-0042000D01*
X-0039500Y0014702D02*
X-0042000D01*
X-0039500Y0014648D02*
X-0042000D01*
X-0039500Y0014594D02*
X-0042000D01*
X-0040232Y0015000D02*
Y0014500D01*
X-0040286Y0015000D02*
Y0014500D01*
X-0040340Y0015000D02*
Y0014500D01*
X-0040394Y0015000D02*
Y0014500D01*
X-0040448Y0015000D02*
Y0014500D01*
X-0040502Y0015000D02*
Y0014500D01*
X-0040556Y0015000D02*
Y0014500D01*
X-0040610Y0015000D02*
Y0014500D01*
X-0040664Y0015000D02*
Y0014500D01*
X-0040718Y0015000D02*
Y0014500D01*
X-0040772Y0015000D02*
Y0014500D01*
X-0040826Y0015000D02*
Y0014500D01*
X-0040880Y0015000D02*
Y0014500D01*
X-0040934Y0015000D02*
Y0014500D01*
X-0040988Y0015000D02*
Y0014500D01*
X-0041042Y0015000D02*
Y0014500D01*
X-0041096Y0015000D02*
Y0014500D01*
X-0041150Y0015000D02*
Y0014500D01*
X-0041204Y0015000D02*
Y0014500D01*
X-0041258Y0015000D02*
Y0014500D01*
X-0041312Y0015000D02*
Y0014500D01*
X-0039500Y0014540D02*
X-0042000D01*
X-0039500Y0014500D02*
X-0042000D01*
Y0015000D02*
Y0014500D01*
X-0039500Y0015000D02*
X-0042000D01*
X-0039500D02*
Y0014500D01*
X-0039530Y0015000D02*
Y0014500D01*
X-0039584Y0015000D02*
Y0014500D01*
X-0039638Y0015000D02*
Y0014500D01*
X-0039692Y0015000D02*
Y0014500D01*
X-0039746Y0015000D02*
Y0014500D01*
X-0039800Y0015000D02*
Y0014500D01*
X-0039854Y0015000D02*
Y0014500D01*
X-0039908Y0015000D02*
Y0014500D01*
X-0039962Y0015000D02*
Y0014500D01*
X-0040016Y0015000D02*
Y0014500D01*
X-0040070Y0015000D02*
Y0014500D01*
X-0040124Y0015000D02*
Y0014500D01*
X-0040178Y0015000D02*
Y0014500D01*
X-0041252Y0017400D02*
Y0016500D01*
X-0041306Y0017400D02*
Y0016500D01*
X-0041360Y0017400D02*
Y0016500D01*
X-0040100Y0017350D02*
X-0041400D01*
X-0040100Y0017296D02*
X-0041400D01*
X-0040100Y0017242D02*
X-0041400D01*
X-0040100Y0017188D02*
X-0041400D01*
X-0040100Y0017134D02*
X-0041400D01*
X-0040100Y0017080D02*
X-0041400D01*
X-0040100Y0017026D02*
X-0041400D01*
X-0040100Y0016972D02*
X-0041400D01*
X-0040100Y0016918D02*
X-0041400D01*
X-0040100Y0016864D02*
X-0041400D01*
X-0040100Y0016810D02*
X-0041400D01*
X-0040100Y0016756D02*
X-0041400D01*
X-0040100Y0016702D02*
X-0041400D01*
X-0040100Y0016648D02*
X-0041400D01*
X-0040100Y0016594D02*
X-0041400D01*
X-0040226Y0017400D02*
Y0016500D01*
X-0040280Y0017400D02*
Y0016500D01*
X-0040334Y0017400D02*
Y0016500D01*
X-0040388Y0017400D02*
Y0016500D01*
X-0040442Y0017400D02*
Y0016500D01*
X-0040496Y0017400D02*
Y0016500D01*
X-0040550Y0017400D02*
Y0016500D01*
X-0040604Y0017400D02*
Y0016500D01*
X-0040658Y0017400D02*
Y0016500D01*
X-0040712Y0017400D02*
Y0016500D01*
X-0040766Y0017400D02*
Y0016500D01*
X-0040820Y0017400D02*
Y0016500D01*
X-0040874Y0017400D02*
Y0016500D01*
X-0040928Y0017400D02*
Y0016500D01*
X-0040982Y0017400D02*
Y0016500D01*
X-0041036Y0017400D02*
Y0016500D01*
X-0041090Y0017400D02*
Y0016500D01*
X-0041144Y0017400D02*
Y0016500D01*
X-0041198Y0017400D02*
Y0016500D01*
X-0040100Y0016540D02*
X-0041400D01*
X-0040100Y0016550D02*
Y0016500D01*
X-0041400D01*
Y0017400D02*
Y0016500D01*
X-0040100Y0017400D02*
X-0041400D01*
X-0040100D02*
Y0016550D01*
X-0040118Y0017400D02*
Y0016500D01*
X-0040172Y0017400D02*
Y0016500D01*
X-0041252Y0012000D02*
Y0011100D01*
X-0041306Y0012000D02*
Y0011100D01*
X-0041360Y0012000D02*
Y0011100D01*
X-0040100Y0011950D02*
X-0041400D01*
X-0040100Y0011896D02*
X-0041400D01*
X-0040100Y0011842D02*
X-0041400D01*
X-0040100Y0011788D02*
X-0041400D01*
X-0040100Y0011734D02*
X-0041400D01*
X-0040100Y0011680D02*
X-0041400D01*
X-0040100Y0011626D02*
X-0041400D01*
X-0040100Y0011572D02*
X-0041400D01*
X-0040100Y0011518D02*
X-0041400D01*
X-0040100Y0011464D02*
X-0041400D01*
X-0040100Y0011410D02*
X-0041400D01*
X-0040100Y0011356D02*
X-0041400D01*
X-0040100Y0011302D02*
X-0041400D01*
X-0040100Y0011248D02*
X-0041400D01*
X-0040100Y0011194D02*
X-0041400D01*
X-0040226Y0012000D02*
Y0011100D01*
X-0040280Y0012000D02*
Y0011100D01*
X-0040334Y0012000D02*
Y0011100D01*
X-0040388Y0012000D02*
Y0011100D01*
X-0040442Y0012000D02*
Y0011100D01*
X-0040496Y0012000D02*
Y0011100D01*
X-0040550Y0012000D02*
Y0011100D01*
X-0040604Y0012000D02*
Y0011100D01*
X-0040658Y0012000D02*
Y0011100D01*
X-0040712Y0012000D02*
Y0011100D01*
X-0040766Y0012000D02*
Y0011100D01*
X-0040820Y0012000D02*
Y0011100D01*
X-0040874Y0012000D02*
Y0011100D01*
X-0040928Y0012000D02*
Y0011100D01*
X-0040982Y0012000D02*
Y0011100D01*
X-0041036Y0012000D02*
Y0011100D01*
X-0041090Y0012000D02*
Y0011100D01*
X-0041144Y0012000D02*
Y0011100D01*
X-0041198Y0012000D02*
Y0011100D01*
X-0040100Y0011140D02*
X-0041400D01*
X-0040100Y0012000D02*
Y0011150D01*
Y0012000D02*
X-0041400D01*
Y0011100D01*
X-0040100D02*
X-0041400D01*
X-0040100Y0011150D02*
Y0011100D01*
X-0040118Y0012000D02*
Y0011100D01*
X-0040172Y0012000D02*
Y0011100D01*
X-0041366Y0016000D02*
Y0015500D01*
X-0041420Y0016000D02*
Y0015500D01*
X-0041474Y0016000D02*
Y0015500D01*
X-0041528Y0016000D02*
Y0015500D01*
X-0041582Y0016000D02*
Y0015500D01*
X-0041636Y0016000D02*
Y0015500D01*
X-0041690Y0016000D02*
Y0015500D01*
X-0041744Y0016000D02*
Y0015500D01*
X-0041798Y0016000D02*
Y0015500D01*
X-0041852Y0016000D02*
Y0015500D01*
X-0041906Y0016000D02*
Y0015500D01*
X-0041960Y0016000D02*
Y0015500D01*
X-0039500Y0015972D02*
X-0042000D01*
X-0039500Y0015918D02*
X-0042000D01*
X-0039500Y0015864D02*
X-0042000D01*
X-0039500Y0015810D02*
X-0042000D01*
X-0039500Y0015756D02*
X-0042000D01*
X-0039500Y0015702D02*
X-0042000D01*
X-0039500Y0015648D02*
X-0042000D01*
X-0039500Y0015594D02*
X-0042000D01*
X-0040232Y0016000D02*
Y0015500D01*
X-0040286Y0016000D02*
Y0015500D01*
X-0040340Y0016000D02*
Y0015500D01*
X-0040394Y0016000D02*
Y0015500D01*
X-0040448Y0016000D02*
Y0015500D01*
X-0040502Y0016000D02*
Y0015500D01*
X-0040556Y0016000D02*
Y0015500D01*
X-0040610Y0016000D02*
Y0015500D01*
X-0040664Y0016000D02*
Y0015500D01*
X-0040718Y0016000D02*
Y0015500D01*
X-0040772Y0016000D02*
Y0015500D01*
X-0040826Y0016000D02*
Y0015500D01*
X-0040880Y0016000D02*
Y0015500D01*
X-0040934Y0016000D02*
Y0015500D01*
X-0040988Y0016000D02*
Y0015500D01*
X-0041042Y0016000D02*
Y0015500D01*
X-0041096Y0016000D02*
Y0015500D01*
X-0041150Y0016000D02*
Y0015500D01*
X-0041204Y0016000D02*
Y0015500D01*
X-0041258Y0016000D02*
Y0015500D01*
X-0041312Y0016000D02*
Y0015500D01*
X-0039500Y0015540D02*
X-0042000D01*
X-0039500Y0015500D02*
X-0042000D01*
Y0016000D02*
Y0015500D01*
X-0039500Y0016000D02*
X-0042000D01*
X-0039500D02*
Y0015500D01*
X-0039530Y0016000D02*
Y0015500D01*
X-0039584Y0016000D02*
Y0015500D01*
X-0039638Y0016000D02*
Y0015500D01*
X-0039692Y0016000D02*
Y0015500D01*
X-0039746Y0016000D02*
Y0015500D01*
X-0039800Y0016000D02*
Y0015500D01*
X-0039854Y0016000D02*
Y0015500D01*
X-0039908Y0016000D02*
Y0015500D01*
X-0039962Y0016000D02*
Y0015500D01*
X-0040016Y0016000D02*
Y0015500D01*
X-0040070Y0016000D02*
Y0015500D01*
X-0040124Y0016000D02*
Y0015500D01*
X-0040178Y0016000D02*
Y0015500D01*
X-0041366Y0013000D02*
Y0012500D01*
X-0041420Y0013000D02*
Y0012500D01*
X-0041474Y0013000D02*
Y0012500D01*
X-0041528Y0013000D02*
Y0012500D01*
X-0041582Y0013000D02*
Y0012500D01*
X-0041636Y0013000D02*
Y0012500D01*
X-0041690Y0013000D02*
Y0012500D01*
X-0041744Y0013000D02*
Y0012500D01*
X-0041798Y0013000D02*
Y0012500D01*
X-0041852Y0013000D02*
Y0012500D01*
X-0041906Y0013000D02*
Y0012500D01*
X-0041960Y0013000D02*
Y0012500D01*
X-0039500Y0012972D02*
X-0042000D01*
X-0039500Y0012918D02*
X-0042000D01*
X-0039500Y0012864D02*
X-0042000D01*
X-0039500Y0012810D02*
X-0042000D01*
X-0039500Y0012756D02*
X-0042000D01*
X-0039500Y0012702D02*
X-0042000D01*
X-0039500Y0012648D02*
X-0042000D01*
X-0039500Y0012594D02*
X-0042000D01*
X-0040232Y0013000D02*
Y0012500D01*
X-0040286Y0013000D02*
Y0012500D01*
X-0040340Y0013000D02*
Y0012500D01*
X-0040394Y0013000D02*
Y0012500D01*
X-0040448Y0013000D02*
Y0012500D01*
X-0040502Y0013000D02*
Y0012500D01*
X-0040556Y0013000D02*
Y0012500D01*
X-0040610Y0013000D02*
Y0012500D01*
X-0040664Y0013000D02*
Y0012500D01*
X-0040718Y0013000D02*
Y0012500D01*
X-0040772Y0013000D02*
Y0012500D01*
X-0040826Y0013000D02*
Y0012500D01*
X-0040880Y0013000D02*
Y0012500D01*
X-0040934Y0013000D02*
Y0012500D01*
X-0040988Y0013000D02*
Y0012500D01*
X-0041042Y0013000D02*
Y0012500D01*
X-0041096Y0013000D02*
Y0012500D01*
X-0041150Y0013000D02*
Y0012500D01*
X-0041204Y0013000D02*
Y0012500D01*
X-0041258Y0013000D02*
Y0012500D01*
X-0041312Y0013000D02*
Y0012500D01*
X-0039500Y0012540D02*
X-0042000D01*
X-0039500Y0012500D02*
X-0042000D01*
Y0013000D02*
Y0012500D01*
X-0039500Y0013000D02*
X-0042000D01*
X-0039500D02*
Y0012500D01*
X-0039530Y0013000D02*
Y0012500D01*
X-0039584Y0013000D02*
Y0012500D01*
X-0039638Y0013000D02*
Y0012500D01*
X-0039692Y0013000D02*
Y0012500D01*
X-0039746Y0013000D02*
Y0012500D01*
X-0039800Y0013000D02*
Y0012500D01*
X-0039854Y0013000D02*
Y0012500D01*
X-0039908Y0013000D02*
Y0012500D01*
X-0039962Y0013000D02*
Y0012500D01*
X-0040016Y0013000D02*
Y0012500D01*
X-0040070Y0013000D02*
Y0012500D01*
X-0040124Y0013000D02*
Y0012500D01*
X-0040178Y0013000D02*
Y0012500D01*
X-0041366Y0014000D02*
Y0013500D01*
X-0041420Y0014000D02*
Y0013500D01*
X-0041474Y0014000D02*
Y0013500D01*
X-0041528Y0014000D02*
Y0013500D01*
X-0041582Y0014000D02*
Y0013500D01*
X-0041636Y0014000D02*
Y0013500D01*
X-0041690Y0014000D02*
Y0013500D01*
X-0041744Y0014000D02*
Y0013500D01*
X-0041798Y0014000D02*
Y0013500D01*
X-0041852Y0014000D02*
Y0013500D01*
X-0041906Y0014000D02*
Y0013500D01*
X-0041960Y0014000D02*
Y0013500D01*
X-0039500Y0013972D02*
X-0042000D01*
X-0039500Y0013918D02*
X-0042000D01*
X-0039500Y0013864D02*
X-0042000D01*
X-0039500Y0013810D02*
X-0042000D01*
X-0039500Y0013756D02*
X-0042000D01*
X-0039500Y0013702D02*
X-0042000D01*
X-0039500Y0013648D02*
X-0042000D01*
X-0039500Y0013594D02*
X-0042000D01*
X-0040232Y0014000D02*
Y0013500D01*
X-0040286Y0014000D02*
Y0013500D01*
X-0040340Y0014000D02*
Y0013500D01*
X-0040394Y0014000D02*
Y0013500D01*
X-0040448Y0014000D02*
Y0013500D01*
X-0040502Y0014000D02*
Y0013500D01*
X-0040556Y0014000D02*
Y0013500D01*
X-0040610Y0014000D02*
Y0013500D01*
X-0040664Y0014000D02*
Y0013500D01*
X-0040718Y0014000D02*
Y0013500D01*
X-0040772Y0014000D02*
Y0013500D01*
X-0040826Y0014000D02*
Y0013500D01*
X-0040880Y0014000D02*
Y0013500D01*
X-0040934Y0014000D02*
Y0013500D01*
X-0040988Y0014000D02*
Y0013500D01*
X-0041042Y0014000D02*
Y0013500D01*
X-0041096Y0014000D02*
Y0013500D01*
X-0041150Y0014000D02*
Y0013500D01*
X-0041204Y0014000D02*
Y0013500D01*
X-0041258Y0014000D02*
Y0013500D01*
X-0041312Y0014000D02*
Y0013500D01*
X-0039500Y0013540D02*
X-0042000D01*
X-0039500Y0014000D02*
Y0013500D01*
Y0014000D02*
X-0042000D01*
Y0013500D01*
X-0039500D02*
X-0042000D01*
X-0039530Y0014000D02*
Y0013500D01*
X-0039584Y0014000D02*
Y0013500D01*
X-0039638Y0014000D02*
Y0013500D01*
X-0039692Y0014000D02*
Y0013500D01*
X-0039746Y0014000D02*
Y0013500D01*
X-0039800Y0014000D02*
Y0013500D01*
X-0039854Y0014000D02*
Y0013500D01*
X-0039908Y0014000D02*
Y0013500D01*
X-0039962Y0014000D02*
Y0013500D01*
X-0040016Y0014000D02*
Y0013500D01*
X-0040070Y0014000D02*
Y0013500D01*
X-0040124Y0014000D02*
Y0013500D01*
X-0040178Y0014000D02*
Y0013500D01*
G54D51*
G01X-0023320Y0009850D02*
Y0008950D01*
X-0023410Y0009850D02*
Y0008950D01*
X-0022400Y0009800D02*
X-0023450D01*
X-0022400Y0009710D02*
X-0023450D01*
X-0022400Y0009620D02*
X-0023450D01*
X-0022400Y0009530D02*
X-0023450D01*
X-0022400Y0009440D02*
X-0023450D01*
X-0022400Y0009350D02*
X-0023450D01*
X-0022400Y0009260D02*
X-0023450D01*
X-0022400Y0009170D02*
X-0023450D01*
X-0022400Y0009080D02*
X-0023450D01*
X-0022420Y0009850D02*
Y0008950D01*
X-0022510Y0009850D02*
Y0008950D01*
X-0022600Y0009850D02*
Y0008950D01*
X-0022690Y0009850D02*
Y0008950D01*
X-0022780Y0009850D02*
Y0008950D01*
X-0022870Y0009850D02*
Y0008950D01*
X-0022960Y0009850D02*
Y0008950D01*
X-0023050Y0009850D02*
Y0008950D01*
X-0023140Y0009850D02*
Y0008950D01*
X-0023230Y0009850D02*
Y0008950D01*
X-0022400Y0008990D02*
X-0023450D01*
X-0022400Y0008950D02*
X-0023450D01*
X-0022400Y0009850D02*
Y0008950D01*
Y0009850D02*
X-0023450D01*
Y0008950D01*
X-0022020Y0011100D02*
Y0010200D01*
X-0022110Y0011100D02*
Y0010200D01*
X-0021100Y0011050D02*
X-0022150D01*
X-0021100Y0010960D02*
X-0022150D01*
X-0021100Y0010870D02*
X-0022150D01*
X-0021100Y0010780D02*
X-0022150D01*
X-0021100Y0010690D02*
X-0022150D01*
X-0021100Y0010600D02*
X-0022150D01*
X-0021100Y0010510D02*
X-0022150D01*
X-0021100Y0010420D02*
X-0022150D01*
X-0021100Y0010330D02*
X-0022150D01*
X-0021120Y0011100D02*
Y0010200D01*
X-0021210Y0011100D02*
Y0010200D01*
X-0021300Y0011100D02*
Y0010200D01*
X-0021390Y0011100D02*
Y0010200D01*
X-0021480Y0011100D02*
Y0010200D01*
X-0021570Y0011100D02*
Y0010200D01*
X-0021660Y0011100D02*
Y0010200D01*
X-0021750Y0011100D02*
Y0010200D01*
X-0021840Y0011100D02*
Y0010200D01*
X-0021930Y0011100D02*
Y0010200D01*
X-0021100Y0010240D02*
X-0022150D01*
X-0021100Y0010200D02*
X-0022150D01*
X-0021100Y0011100D02*
Y0010200D01*
Y0011100D02*
X-0022150D01*
Y0010200D01*
X-0022020Y0009850D02*
Y0008950D01*
X-0022110Y0009850D02*
Y0008950D01*
X-0021100Y0009800D02*
X-0022150D01*
X-0021100Y0009710D02*
X-0022150D01*
X-0021100Y0009620D02*
X-0022150D01*
X-0021100Y0009530D02*
X-0022150D01*
X-0021100Y0009440D02*
X-0022150D01*
X-0021100Y0009350D02*
X-0022150D01*
X-0021100Y0009260D02*
X-0022150D01*
X-0021100Y0009170D02*
X-0022150D01*
X-0021100Y0009080D02*
X-0022150D01*
X-0021120Y0009850D02*
Y0008950D01*
X-0021210Y0009850D02*
Y0008950D01*
X-0021300Y0009850D02*
Y0008950D01*
X-0021390Y0009850D02*
Y0008950D01*
X-0021480Y0009850D02*
Y0008950D01*
X-0021570Y0009850D02*
Y0008950D01*
X-0021660Y0009850D02*
Y0008950D01*
X-0021750Y0009850D02*
Y0008950D01*
X-0021840Y0009850D02*
Y0008950D01*
X-0021930Y0009850D02*
Y0008950D01*
X-0021100Y0008990D02*
X-0022150D01*
Y0009850D02*
Y0008950D01*
X-0021100Y0009850D02*
X-0022150D01*
X-0021100D02*
Y0008950D01*
X-0022150D01*
X-0023320Y0011100D02*
Y0010200D01*
X-0023410Y0011100D02*
Y0010200D01*
X-0022400Y0011050D02*
X-0023450D01*
X-0022400Y0010960D02*
X-0023450D01*
X-0022400Y0010870D02*
X-0023450D01*
X-0022400Y0010780D02*
X-0023450D01*
X-0022400Y0010690D02*
X-0023450D01*
X-0022400Y0010600D02*
X-0023450D01*
X-0022400Y0010510D02*
X-0023450D01*
X-0022400Y0010420D02*
X-0023450D01*
X-0022400Y0010330D02*
X-0023450D01*
X-0022420Y0011100D02*
Y0010200D01*
X-0022510Y0011100D02*
Y0010200D01*
X-0022600Y0011100D02*
Y0010200D01*
X-0022690Y0011100D02*
Y0010200D01*
X-0022780Y0011100D02*
Y0010200D01*
X-0022870Y0011100D02*
Y0010200D01*
X-0022960Y0011100D02*
Y0010200D01*
X-0023050Y0011100D02*
Y0010200D01*
X-0023140Y0011100D02*
Y0010200D01*
X-0023230Y0011100D02*
Y0010200D01*
X-0022400Y0010240D02*
X-0023450D01*
X-0022400Y0010200D02*
X-0023450D01*
X-0022400Y0011100D02*
Y0010200D01*
Y0011100D02*
X-0023450D01*
Y0010200D01*
G54D11*
X-0018500Y0003650D03*
Y0002350D03*
X-0016000Y0003900D03*
Y0002600D03*
X-0024500Y0008350D03*
Y0009650D03*
X-0020000Y0006850D03*
Y0008150D03*
X-0020500Y0004600D03*
Y0005900D03*
Y0003650D03*
Y0002350D03*
G54D12*
X-0013000Y0008280D03*
Y0007720D03*
X-0013250Y0003220D03*
Y0003780D03*
X-0014000Y0003220D03*
Y0003780D03*
X-0014750Y0003220D03*
Y0003780D03*
X-0011250Y0007030D03*
Y0006470D03*
X-0012000Y0007030D03*
Y0006470D03*
X-0015750Y0007030D03*
Y0006470D03*
X-0013750Y0007720D03*
Y0008280D03*
X-0030500Y0016780D03*
Y0016220D03*
X-0034000Y0019530D03*
Y0018970D03*
X-0033250Y0019530D03*
Y0018970D03*
X-0029250Y0016780D03*
Y0016220D03*
X-0031500Y0019780D03*
Y0019220D03*
X-0030750Y0019780D03*
Y0019220D03*
X-0028000Y0016780D03*
Y0016220D03*
X-0026750Y0016780D03*
Y0016220D03*
X-0028750Y0019780D03*
Y0019220D03*
X-0033500Y0015720D03*
Y0016280D03*
X-0028750Y0018530D03*
Y0017970D03*
X-0033500Y0016970D03*
Y0017530D03*
X-0022750Y0017280D03*
Y0016720D03*
X-0020750Y0012780D03*
Y0012220D03*
X-0015250Y0011530D03*
Y0010970D03*
X-0016000Y0011530D03*
Y0010970D03*
Y0015970D03*
Y0016530D03*
X-0015250Y0015970D03*
Y0016530D03*
X-0013000Y0010970D03*
Y0011530D03*
X-0013750D03*
Y0010970D03*
X-0012250Y0016530D03*
Y0015970D03*
X-0011750Y0013470D03*
Y0014030D03*
X-0013000Y0015280D03*
Y0014720D03*
X-0013750Y0016530D03*
Y0015970D03*
X-0001000Y0010970D03*
Y0011530D03*
X-0002000Y0006780D03*
Y0006220D03*
X-0002500Y0010970D03*
Y0011530D03*
X-0003500Y0006780D03*
Y0006220D03*
X-0004000Y0010970D03*
Y0011530D03*
X-0005000Y0006780D03*
Y0006220D03*
X0000500Y0006780D03*
Y0006220D03*
X-0005500Y0010970D03*
Y0011530D03*
X0000500D03*
Y0010970D03*
X-0006500Y0006780D03*
Y0006220D03*
X-0008500Y0010280D03*
Y0009720D03*
X-0010000Y0010280D03*
Y0009720D03*
X-0018250Y0011530D03*
Y0010970D03*
X-0024745Y0001280D03*
Y0000720D03*
X-0023250Y0001280D03*
Y0000720D03*
X-0016500Y0001780D03*
Y0001220D03*
X-0014750Y0001780D03*
Y0001220D03*
X-0010250Y0006530D03*
Y0005970D03*
X-0006500Y0005530D03*
Y0004970D03*
X-0014500Y0008280D03*
Y0007720D03*
X-0015250Y0008280D03*
Y0007720D03*
X-0032000Y0014720D03*
Y0015280D03*
X-0026500Y0018780D03*
Y0018220D03*
X-0023500Y0017280D03*
Y0016720D03*
X-0022000Y0011970D03*
Y0012530D03*
Y0017280D03*
Y0016720D03*
X-0025500Y0017280D03*
Y0016720D03*
X-0024250Y0011970D03*
Y0012530D03*
Y0017280D03*
Y0016720D03*
X-0036750Y0013530D03*
Y0012970D03*
X-0014500Y0011530D03*
Y0010970D03*
X-0016000Y0015030D03*
Y0014470D03*
X-0016750Y0015970D03*
Y0016530D03*
X-0013000Y0013470D03*
Y0014030D03*
Y0016530D03*
Y0015970D03*
X-0001250Y0006780D03*
Y0006220D03*
X-0002750Y0006780D03*
Y0006220D03*
X-0004250Y0006780D03*
Y0006220D03*
X-0000500Y0006780D03*
Y0006220D03*
X-0005750Y0006780D03*
Y0006220D03*
X-0009250Y0010280D03*
Y0009720D03*
G54D13*
X-0010400Y0004750D03*
X-0009100D03*
G54D14*
X-0035530Y0014250D03*
X-0034970D03*
X-0036220Y0015000D03*
X-0036780D03*
X-0036220Y0015750D03*
X-0036780D03*
Y0014250D03*
X-0036220D03*
G54D15*
X-0036250Y0007787D03*
Y0011213D03*
G54D16*
X-0020000Y0009463D03*
Y0011037D03*
X-0021750Y0004213D03*
Y0005787D03*
G54D17*
X-0001120Y0003750D03*
X0000620D03*
G54D18*
X-0012250Y0010856D03*
Y0011644D03*
G54D19*
X-0035894Y0013500D03*
X-0035106D03*
Y0013000D03*
X-0035894D03*
G54D20*
X-0011250Y0004850D03*
Y0005650D03*
X-0012000Y0004850D03*
Y0005650D03*
X-0015750Y0004850D03*
Y0005650D03*
X-0030500Y0014600D03*
Y0015400D03*
X-0029250Y0014600D03*
Y0015400D03*
X-0026750Y0014600D03*
Y0015400D03*
X-0028000Y0014600D03*
Y0015400D03*
X-0037250Y0006150D03*
Y0005350D03*
X-0036000Y0006150D03*
Y0005350D03*
X-0038500Y0006150D03*
Y0005350D03*
X-0036500Y0018600D03*
Y0019400D03*
X-0037250Y0018600D03*
Y0019400D03*
X-0001750Y0010850D03*
Y0011650D03*
X-0003250Y0010850D03*
Y0011650D03*
X-0004750Y0010850D03*
Y0011650D03*
X-0006250Y0010850D03*
Y0011650D03*
X-0018250Y0009350D03*
Y0010150D03*
X-0024750Y-0000900D03*
Y-0000100D03*
X-0023250Y-0000900D03*
Y-0000100D03*
X-0022000Y-0000900D03*
Y-0000100D03*
G54D21*
X-0031750Y0001745D03*
Y0004255D03*
G54D22*
X-0018000Y0004793D03*
Y0007707D03*
X-0034250Y0003793D03*
Y0006707D03*
G54D32*
X-0017214Y-0000250D03*
X-0013651D03*
G54D33*
X-0014547Y0000498D03*
X-0014744D03*
X-0014941D03*
X-0015138D03*
X-0015334D03*
X-0015531D03*
X-0015728D03*
X-0015925D03*
X-0016122D03*
X-0016319D03*
G54D34*
X-0008197Y0005600D03*
Y0004400D03*
X-0007803D03*
Y0005600D03*
G54D36*
X-0020250Y0014700D03*
X-0020650Y0013800D03*
X-0019850D03*
X-0020250Y0016700D03*
X-0020650Y0015800D03*
X-0019850D03*
G54D37*
X-0021750Y0001090D03*
Y0002410D03*
G54D38*
X-0045430Y0018500D03*
X-0043070D03*
G54D40*
X-0023150Y0007300D03*
X-0021350D03*
G54D42*
X-0007750Y0009000D03*
X-0008250D03*
X-0008750D03*
X-0009250D03*
Y0006600D03*
X-0008750D03*
X-0008250D03*
X-0007750D03*
G54D43*
X-0002000Y0007510D03*
X-0001500D03*
Y0009990D03*
X-0002000D03*
X-0003500Y0007510D03*
X-0003000D03*
Y0009990D03*
X-0003500D03*
X-0005000Y0007510D03*
X-0004500D03*
Y0009990D03*
X-0005000D03*
X-0006500Y0007510D03*
X-0006000D03*
Y0009990D03*
X-0006500D03*
G54D44*
X0000500Y0009852D03*
X-0000500D03*
Y0007648D03*
X0000500D03*
G54D45*
X-0032750Y0016000D03*
X-0032494D03*
X-0032238D03*
X-0031982D03*
X-0031726D03*
X-0031470D03*
X-0031215D03*
Y0018338D03*
X-0031470D03*
X-0031726D03*
X-0031982D03*
X-0032238D03*
X-0032494D03*
X-0032750D03*
X-0023250Y0013500D03*
X-0022994D03*
X-0022738D03*
X-0022482D03*
X-0022226D03*
X-0021970D03*
X-0021715D03*
Y0015838D03*
X-0021970D03*
X-0022226D03*
X-0022482D03*
X-0022738D03*
X-0022994D03*
X-0023250D03*
X-0025500Y0013500D03*
X-0025244D03*
X-0024988D03*
X-0024732D03*
X-0024476D03*
X-0024220D03*
X-0023965D03*
Y0015838D03*
X-0024220D03*
X-0024476D03*
X-0024732D03*
X-0024988D03*
X-0025244D03*
X-0025500D03*
X-0013750Y0014750D03*
X-0014006D03*
X-0014262D03*
X-0014518D03*
X-0014773D03*
X-0015029D03*
X-0015285D03*
Y0012411D03*
X-0015029D03*
X-0014773D03*
X-0014518D03*
X-0014262D03*
X-0014006D03*
X-0013750D03*
G54D46*
X-0038053Y0012000D03*
Y0012500D03*
Y0013000D03*
Y0013500D03*
Y0014000D03*
Y0014500D03*
Y0015000D03*
Y0015500D03*
Y0016000D03*
Y0016500D03*
X-0043447D03*
Y0016000D03*
Y0015500D03*
Y0015000D03*
Y0014500D03*
Y0014000D03*
Y0013500D03*
Y0013000D03*
Y0012500D03*
Y0012000D03*
G54D47*
X-0027250Y0019500D03*
X-0027506D03*
X-0027762D03*
X-0028018D03*
X-0027250Y0017571D03*
X-0027506D03*
X-0027762D03*
X-0028018D03*
G54D48*
X-0014896Y0004608D03*
X-0014640D03*
X-0014384D03*
X-0014128D03*
X-0013872D03*
X-0013616D03*
X-0013360D03*
X-0013104D03*
Y0006892D03*
X-0013360D03*
X-0013616D03*
X-0013872D03*
X-0014128D03*
X-0014384D03*
X-0014640D03*
X-0014896D03*
M02*
