*
G04 Mass Parameters ***
*
G04 Image ***
*
%IND:\UTENTI\00.CAD\00.PROGETTI\METALTRONICA\22-302-0 (DIMOBIS)\22-302-0 (DIMOBIS)\22-302-0.SSB*%
%ICAS*%
%MOIN*%
%IPPOS*%
%ASAXBY*%
G74*%FSLAN2X34Y34*%
*
G04 Aperture Definitions ***
*
%AMTHERMAL77*
1,1,0.1211,0,0,*
1,0,0.0972,0,0,*
21,0,0.1212,0.0100,0,0,135.0*
21,0,0.1212,0.0100,0,0,225.0*%
%AMTHERMAL82*
1,1,0.1172,0,0,*
1,0,0.0933,0,0,*
21,0,0.1173,0.0100,0,0,45.0*
21,0,0.1173,0.0100,0,0,135.0*%
%AMTHERMAL86*
1,1,0.1172,0,0,*
1,0,0.0933,0,0,*
21,0,0.1173,0.0100,0,0,225.0*
21,0,0.1173,0.0100,0,0,315.0*%
%AMTHERMAL93*
1,1,0.1054,0,0,*
1,0,0.0815,0,0,*
21,0,0.1055,0.0100,0,0,135.0*
21,0,0.1055,0.0100,0,0,225.0*%
%AMTHERMAL96*
1,1,0.1172,0,0,*
1,0,0.0933,0,0,*
21,0,0.1173,0.0100,0,0,315.0*
21,0,0.1173,0.0100,0,0,45.0*%
%ADD10R,0.1024X0.0510*%
%ADD11R,0.0380X0.0320*%
%ADD12R,0.0510X0.1024*%
%ADD13R,0.0320X0.0380*%
%ADD14R,0.0787X0.1614*%
%ADD15R,0.0787X0.0787*%
%ADD16R,0.0850X0.1080*%
%ADD17R,0.0197X0.0315*%
%ADD18R,0.0315X0.0197*%
%ADD19R,0.0501X0.0404*%
%ADD20R,0.1500X0.1670*%
%ADD21R,0.1220X0.0905*%
%ADD22C,0.1000*%
%ADD23C,0.0512*%
%ADD24C,0.0866*%
%ADD25C,0.0669*%
%ADD26C,0.0800*%
%ADD27R,0.0800X0.0800*%
%ADD28C,0.0787*%
%ADD29O,0.0630X0.0787*%
%ADD30R,0.1000X0.1000*%
%ADD31R,0.0649X0.0512*%
%ADD32R,0.0118X0.0394*%
%ADD33R,0.0236X0.0413*%
%ADD34C,0.1968*%
%ADD35R,0.0250X0.0350*%
%ADD36R,0.0400X0.0500*%
%ADD37R,0.0710X0.0400*%
%ADD38R,0.0760X0.1200*%
%ADD39R,0.0799X0.0799*%
%ADD40R,0.0600X0.1000*%
%ADD41R,0.2760X0.2760*%
%ADD42O,0.0256X0.0650*%
%ADD43R,0.0354X0.0512*%
%ADD44R,0.0236X0.0512*%
%ADD45O,0.0118X0.0701*%
%ADD46C,0.0394*%
%ADD47R,0.0669X0.0276*%
%ADD48R,0.0165X0.0354*%
%ADD49R,0.0177X0.0590*%
%ADD50C,0.0276*%
%ADD51C,0.0060*%
%ADD52C,0.0100*%
%ADD53C,0.0250*%
%ADD54C,0.0120*%
%ADD55C,0.0276*%
%ADD56C,0.0080*%
%ADD57C,0.0600*%
%ADD58C,0.0150*%
%ADD59C,0.0800*%
%ADD60C,0.0300*%
%ADD61C,0.0276*%
%ADD62C,0.0500*%
%ADD63C,0.0276*%
%ADD64R,0.1080X0.0850*%
%ADD65R,0.0550X0.0350*%
%ADD66R,0.0350X0.0250*%
%ADD67R,0.0500X0.0400*%
%ADD68R,0.0570X0.0590*%
%ADD69O,0.0110X0.0700*%
%ADD70R,0.0110X0.0700*%
%ADD71O,0.0700X0.0110*%
%ADD72R,0.0700X0.0110*%
%ADD73R,0.0394X0.0197*%
%ADD74C,0.0276*%
%ADD75C,0.0110*%
%ADD76C,0.0400*%
%ADD77THERMAL77*%
%ADD78C,0.1181*%
%ADD79C,0.0800*%
%ADD80C,0.1024*%
%ADD81C,0.0866*%
%ADD82THERMAL82*%
%ADD83C,0.1100*%
%ADD84R,0.1100X0.1100*%
%ADD85C,0.1027*%
%ADD86THERMAL86*%
%ADD87C,0.1027*%
%ADD88C,0.0800*%
%ADD89C,0.0984*%
%ADD90C,0.1300*%
%ADD91R,0.1300X0.1300*%
%ADD92C,0.2362*%
%ADD93THERMAL93*%
%ADD94C,0.1027*%
%ADD95C,0.0984*%
%ADD96THERMAL96*%
%ADD97R,0.1027X0.1027*%
%ADD98C,0.0590*%
%ADD99C,0.0050*%
%ADD100C,0.1100*%
%ADD101C,0.0050*%
%ADD102C,0.0394*%
%ADD103C,0.0197*%
%ADD104C,0.0394*%
%ADD105C,0.0050*%
%ADD106C,0.0709*%
%ADD107C,0.0079*%
%ADD108C,0.0050*%
*
G04 Plot Data ***
*
G54D51*
G01X-0036501Y0003169D02*
X-0036361D01*
X-0036338Y0003235D01*
Y0003302D01*
X-0036361Y0003369D01*
X-0036501D01*
X-0036524Y0003302D01*
Y0003235D01*
X-0036431Y0002969D01*
X-0036194D02*
X-0036008D01*
X-0036194Y0003235D01*
Y0003302D01*
X-0036171Y0003369D01*
X-0036031D01*
X-0036008Y0003302D01*
X-0035701Y0002969D02*
Y0003369D01*
X-0035678Y0002969D02*
X-0035818D01*
X-0035864Y0003102D01*
Y0003235D01*
X-0035818Y0003369D01*
X-0035678D01*
X-0036160Y0008748D02*
Y0008888D01*
X-0036227Y0008911D01*
X-0036294D01*
X-0036360Y0008888D01*
Y0008748D01*
X-0036294Y0008724D01*
X-0036227D01*
X-0035960Y0008818D01*
Y0009194D02*
X-0036360Y0009054D01*
Y0009241D01*
X-0036160Y0009454D02*
X-0035960Y0009384D01*
X-0036160Y0009571D02*
Y0009431D01*
X-0036227Y0009384D01*
X-0036294D01*
X-0036360Y0009431D01*
Y0009571D01*
X-0035960D01*
X-0007127Y0019208D02*
X-0007060Y0019184D01*
Y0019044D01*
X-0007127Y0019021D01*
X-0007260D01*
X-0007327Y0019068D01*
Y0019208D01*
X-0007460D01*
Y0019021D01*
X-0007060Y0019351D02*
Y0019444D01*
Y0019398D02*
X-0007460D01*
X-0007394Y0019444D01*
X-0007127Y0019634D02*
X-0007060Y0019658D01*
Y0019798D01*
X-0007127Y0019821D01*
X-0007394D01*
X-0007460Y0019798D01*
Y0019658D01*
X-0007394Y0019634D01*
X-0036959Y0019722D02*
X-0036913Y0019789D01*
X-0036889Y0019855D01*
Y0019989D01*
X-0036913Y0020055D01*
X-0036959Y0020122D01*
X-0037006D01*
X-0037053Y0020055D01*
X-0037076Y0019989D01*
Y0019855D01*
X-0037053Y0019789D01*
X-0037006Y0019722D01*
X-0036959D01*
X-0036746Y0019855D02*
X-0036559D01*
X-0036653Y0020122D01*
X-0036699D01*
Y0019722D01*
X-0036346Y0019922D02*
X-0036416Y0019722D01*
X-0036229Y0019922D02*
X-0036369D01*
X-0036416Y0019989D01*
Y0020055D01*
X-0036369Y0020122D01*
X-0036229D01*
Y0019722D01*
X-0026089Y0017072D02*
X-0026023Y0017025D01*
Y0016932D01*
X-0026089Y0016885D01*
X-0026156D01*
X-0026289Y0016979D01*
X-0026423Y0016885D01*
Y0017072D01*
X-0026223Y0017379D02*
Y0017239D01*
X-0026156Y0017215D01*
X-0026089D01*
X-0026023Y0017239D01*
Y0017379D01*
X-0026089Y0017402D01*
X-0026156D01*
X-0026423Y0017309D01*
X-0026223Y0017615D02*
X-0026023Y0017545D01*
X-0026223Y0017732D02*
Y0017592D01*
X-0026289Y0017545D01*
X-0026356D01*
X-0026423Y0017592D01*
Y0017732D01*
X-0026023D01*
X-0029699Y-0000500D02*
Y-0000407D01*
Y-0000453D02*
X-0030099D01*
X-0030032Y-0000407D01*
X-0029699Y-0000053D02*
X-0030099D01*
X-0029699Y-0000030D02*
Y-0000170D01*
X-0029832Y-0000217D01*
X-0029966D01*
X-0030099Y-0000170D01*
Y-0000030D01*
X-0013558Y0000429D02*
X-0013958Y0000289D01*
Y0000476D01*
X-0013558Y0000619D02*
Y0000806D01*
X-0013825Y0000619D01*
X-0013891D01*
X-0013958Y0000642D01*
Y0000782D01*
X-0013891Y0000806D01*
X-0013558Y0001112D02*
X-0013958D01*
X-0013558Y0001136D02*
Y0000996D01*
X-0013691Y0000949D01*
X-0013825D01*
X-0013958Y0000996D01*
Y0001136D01*
X-0044848Y0004376D02*
Y0004236D01*
X-0044782Y0004213D01*
X-0044715D01*
X-0044648Y0004236D01*
Y0004376D01*
X-0044715Y0004399D01*
X-0044782D01*
X-0045048Y0004306D01*
X-0044848Y0004613D02*
X-0044648Y0004543D01*
X-0044848Y0004729D02*
Y0004589D01*
X-0044915Y0004543D01*
X-0044982D01*
X-0045048Y0004589D01*
Y0004729D01*
X-0044648D01*
X-0021510Y0014338D02*
Y0014198D01*
X-0021444Y0014174D01*
X-0021377D01*
X-0021310Y0014198D01*
Y0014338D01*
X-0021377Y0014361D01*
X-0021444D01*
X-0021710Y0014268D01*
X-0021510Y0014668D02*
Y0014528D01*
X-0021444Y0014504D01*
X-0021377D01*
X-0021310Y0014528D01*
Y0014668D01*
X-0021377Y0014691D01*
X-0021444D01*
X-0021710Y0014598D01*
X-0021510Y0014904D02*
X-0021310Y0014834D01*
X-0021510Y0015021D02*
Y0014881D01*
X-0021577Y0014834D01*
X-0021644D01*
X-0021710Y0014881D01*
Y0015021D01*
X-0021310D01*
X-0009375Y0000522D02*
X-0009308Y0000476D01*
Y0000382D01*
X-0009375Y0000336D01*
X-0009441D01*
X-0009575Y0000429D01*
X-0009708Y0000336D01*
Y0000522D01*
X-0009308Y0000666D02*
Y0000759D01*
Y0000712D02*
X-0009708D01*
X-0009641Y0000759D01*
X-0009308Y0001112D02*
X-0009708D01*
X-0009308Y0001136D02*
Y0000996D01*
X-0009441Y0000949D01*
X-0009575D01*
X-0009708Y0000996D01*
Y0001136D01*
X-0038010Y0018648D02*
Y0018788D01*
X-0038077Y0018811D01*
X-0038144D01*
X-0038210Y0018788D01*
Y0018648D01*
X-0038144Y0018624D01*
X-0038077D01*
X-0037810Y0018718D01*
X-0037877Y0019141D02*
X-0037810Y0019094D01*
Y0019001D01*
X-0037877Y0018954D01*
X-0037944D01*
X-0038077Y0019048D01*
X-0038210Y0018954D01*
Y0019141D01*
X-0038010Y0019354D02*
X-0037810Y0019284D01*
X-0038010Y0019471D02*
Y0019331D01*
X-0038077Y0019284D01*
X-0038144D01*
X-0038210Y0019331D01*
Y0019471D01*
X-0037810D01*
X-0037323Y0001082D02*
X-0037390Y0001059D01*
X-0037457D01*
X-0037523Y0001082D01*
Y0001222D01*
X-0037457Y0001246D01*
X-0037390D01*
X-0037323Y0001222D01*
Y0001082D01*
X-0037257Y0001059D01*
X-0037190D01*
X-0037123Y0001082D01*
Y0001222D01*
X-0037190Y0001246D01*
X-0037257D01*
X-0037323Y0001222D01*
X-0037123Y0001389D02*
Y0001482D01*
Y0001436D02*
X-0037523D01*
X-0037457Y0001482D01*
X-0037123Y0001836D02*
X-0037523D01*
X-0037123Y0001859D02*
Y0001719D01*
X-0037257Y0001672D01*
X-0037390D01*
X-0037523Y0001719D01*
Y0001859D01*
X-0012818Y0016206D02*
X-0012631D01*
X-0012724Y0016473D01*
X-0012771D01*
Y0016073D01*
X-0012488D02*
X-0012394D01*
X-0012441D02*
Y0016473D01*
X-0012394Y0016406D01*
X-0012204Y0016139D02*
X-0012181Y0016073D01*
X-0012041D01*
X-0012018Y0016139D01*
Y0016406D01*
X-0012041Y0016473D01*
X-0012181D01*
X-0012204Y0016406D01*
X-0023823Y0016909D02*
X-0023889Y0016885D01*
X-0023956D01*
X-0024023Y0016909D01*
Y0017049D01*
X-0023956Y0017072D01*
X-0023889D01*
X-0023823Y0017049D01*
Y0016909D01*
X-0023756Y0016885D01*
X-0023689D01*
X-0023623Y0016909D01*
Y0017049D01*
X-0023689Y0017072D01*
X-0023756D01*
X-0023823Y0017049D01*
Y0017379D02*
Y0017239D01*
X-0023756Y0017215D01*
X-0023689D01*
X-0023623Y0017239D01*
Y0017379D01*
X-0023689Y0017402D01*
X-0023756D01*
X-0024023Y0017309D01*
X-0023823Y0017615D02*
X-0023623Y0017545D01*
X-0023823Y0017732D02*
Y0017592D01*
X-0023889Y0017545D01*
X-0023956D01*
X-0024023Y0017592D01*
Y0017732D01*
X-0023623D01*
X-0011808Y0000452D02*
Y0000312D01*
X-0011741Y0000289D01*
X-0011675D01*
X-0011608Y0000312D01*
Y0000452D01*
X-0011675Y0000476D01*
X-0011741D01*
X-0012008Y0000382D01*
X-0011608Y0000619D02*
Y0000806D01*
X-0011875Y0000619D01*
X-0011941D01*
X-0012008Y0000642D01*
Y0000782D01*
X-0011941Y0000806D01*
X-0011608Y0001112D02*
X-0012008D01*
X-0011608Y0001136D02*
Y0000996D01*
X-0011741Y0000949D01*
X-0011875D01*
X-0012008Y0000996D01*
Y0001136D01*
X-0035660Y0005414D02*
X-0036060Y0005274D01*
Y0005461D01*
X-0035794Y0005604D02*
Y0005791D01*
X-0036060Y0005698D01*
Y0005651D01*
X-0035660D01*
X-0035860Y0006004D02*
X-0035660Y0005934D01*
X-0035860Y0006121D02*
Y0005981D01*
X-0035927Y0005934D01*
X-0035994D01*
X-0036060Y0005981D01*
Y0006121D01*
X-0035660D01*
X-0006508Y0000342D02*
X-0006575Y0000319D01*
X-0006641D01*
X-0006708Y0000342D01*
Y0000482D01*
X-0006641Y0000506D01*
X-0006575D01*
X-0006508Y0000482D01*
Y0000342D01*
X-0006441Y0000319D01*
X-0006375D01*
X-0006308Y0000342D01*
Y0000482D01*
X-0006375Y0000506D01*
X-0006441D01*
X-0006508Y0000482D01*
X-0006308Y0000812D02*
X-0006708D01*
X-0006308Y0000836D02*
Y0000696D01*
X-0006441Y0000649D01*
X-0006575D01*
X-0006708Y0000696D01*
Y0000836D01*
X-0003358Y0000459D02*
X-0003758Y0000319D01*
Y0000506D01*
X-0003358Y0000812D02*
X-0003758D01*
X-0003358Y0000836D02*
Y0000696D01*
X-0003491Y0000649D01*
X-0003625D01*
X-0003758Y0000696D01*
Y0000836D01*
X-0002358Y0000332D02*
Y0000426D01*
Y0000379D02*
X-0002758D01*
X-0002691Y0000426D01*
X-0002358Y0000616D02*
Y0000709D01*
Y0000662D02*
X-0002758D01*
X-0002691Y0000709D01*
X-0002358Y0001062D02*
X-0002758D01*
X-0002358Y0001086D02*
Y0000946D01*
X-0002491Y0000899D01*
X-0002625D01*
X-0002758Y0000946D01*
Y0001086D01*
X-0011144Y0018473D02*
X-0011284Y0018873D01*
X-0011098D01*
X-0010884Y0018673D02*
X-0010954Y0018473D01*
X-0010768Y0018673D02*
X-0010908D01*
X-0010954Y0018739D01*
Y0018806D01*
X-0010908Y0018873D01*
X-0010768D01*
Y0018473D01*
X-0018130Y0012564D02*
Y0012657D01*
Y0012611D02*
X-0018530D01*
X-0018463Y0012657D01*
X-0018263Y0012941D02*
X-0018130Y0012847D01*
X-0018196Y0013034D02*
X-0018130Y0013011D01*
Y0012917D01*
X-0018196Y0012894D01*
X-0018263Y0012847D01*
X-0018463D01*
X-0018530Y0012871D01*
Y0013011D01*
X-0018463Y0013034D01*
X-0018196D01*
X-0024377Y0012911D02*
X-0024310Y0012888D01*
Y0012748D01*
X-0024377Y0012724D01*
X-0024510D01*
X-0024577Y0012771D01*
Y0012911D01*
X-0024710D01*
Y0012724D01*
X-0024510Y0013218D02*
Y0013078D01*
X-0024444Y0013054D01*
X-0024377D01*
X-0024310Y0013078D01*
Y0013218D01*
X-0024377Y0013241D01*
X-0024444D01*
X-0024710Y0013148D01*
X-0024510Y0013454D02*
X-0024310Y0013384D01*
X-0024510Y0013571D02*
Y0013431D01*
X-0024577Y0013384D01*
X-0024644D01*
X-0024710Y0013431D01*
Y0013571D01*
X-0024310D01*
X-0036118Y0011852D02*
X-0036184Y0011899D01*
X-0036251Y0011922D01*
X-0036384D01*
X-0036451Y0011899D01*
X-0036518Y0011852D01*
Y0011805D01*
X-0036451Y0011759D01*
X-0036384Y0011735D01*
X-0036251D01*
X-0036184Y0011759D01*
X-0036118Y0011805D01*
Y0011852D01*
X-0036251Y0012065D02*
Y0012252D01*
X-0036518Y0012159D01*
Y0012112D01*
X-0036118D01*
X-0036184Y0012395D02*
X-0036118Y0012419D01*
Y0012559D01*
X-0036184Y0012582D01*
X-0036451D01*
X-0036518Y0012559D01*
Y0012419D01*
X-0036451Y0012395D01*
X-0027173Y0005715D02*
Y0005902D01*
X-0027439Y0005715D01*
X-0027506D01*
X-0027573Y0005739D01*
Y0005879D01*
X-0027506Y0005902D01*
X-0027239Y0006045D02*
X-0027173Y0006069D01*
Y0006209D01*
X-0027239Y0006232D01*
X-0027506D01*
X-0027573Y0006209D01*
Y0006069D01*
X-0027506Y0006045D01*
X-0004558Y0000342D02*
Y0000482D01*
X-0004625Y0000506D01*
X-0004691D01*
X-0004758Y0000482D01*
Y0000342D01*
X-0004691Y0000319D01*
X-0004625D01*
X-0004358Y0000412D01*
Y0000812D02*
X-0004758D01*
X-0004358Y0000836D02*
Y0000696D01*
X-0004491Y0000649D01*
X-0004625D01*
X-0004758Y0000696D01*
Y0000836D01*
X-0023392Y0019880D02*
X-0023416Y0019946D01*
Y0020013D01*
X-0023392Y0020080D01*
X-0023252D01*
X-0023229Y0020013D01*
Y0019946D01*
X-0023252Y0019880D01*
X-0023392D01*
X-0023416Y0019813D01*
Y0019746D01*
X-0023392Y0019680D01*
X-0023252D01*
X-0023229Y0019746D01*
Y0019813D01*
X-0023252Y0019880D01*
X-0023086Y0019680D02*
X-0022992D01*
X-0023039D02*
Y0020080D01*
X-0022992Y0020013D01*
X-0022709Y0019813D02*
X-0022802Y0019680D01*
X-0022616Y0019746D02*
X-0022639Y0019680D01*
X-0022732D01*
X-0022756Y0019746D01*
X-0022802Y0019813D01*
Y0020013D01*
X-0022779Y0020080D01*
X-0022639D01*
X-0022616Y0020013D01*
Y0019746D01*
X-0014675Y0000476D02*
X-0014608Y0000452D01*
Y0000312D01*
X-0014675Y0000289D01*
X-0014808D01*
X-0014875Y0000336D01*
Y0000476D01*
X-0015008D01*
Y0000289D01*
X-0014608Y0000619D02*
Y0000806D01*
X-0014875Y0000619D01*
X-0014941D01*
X-0015008Y0000642D01*
Y0000782D01*
X-0014941Y0000806D01*
X-0014608Y0001112D02*
X-0015008D01*
X-0014608Y0001136D02*
Y0000996D01*
X-0014741Y0000949D01*
X-0014875D01*
X-0015008Y0000996D01*
Y0001136D01*
X-0012818Y0012906D02*
X-0012631D01*
X-0012724Y0013173D01*
X-0012771D01*
Y0012773D01*
X-0012488D02*
X-0012394D01*
X-0012441D02*
Y0013173D01*
X-0012394Y0013106D01*
X-0012134Y0012973D02*
X-0012204Y0012773D01*
X-0012018Y0012973D02*
X-0012158D01*
X-0012204Y0013039D01*
Y0013106D01*
X-0012158Y0013173D01*
X-0012018D01*
Y0012773D01*
X-0005558Y0000482D02*
Y0000342D01*
X-0005491Y0000319D01*
X-0005425D01*
X-0005358Y0000342D01*
Y0000482D01*
X-0005425Y0000506D01*
X-0005491D01*
X-0005758Y0000412D01*
X-0005358Y0000812D02*
X-0005758D01*
X-0005358Y0000836D02*
Y0000696D01*
X-0005491Y0000649D01*
X-0005625D01*
X-0005758Y0000696D01*
Y0000836D01*
X-0003081Y0014439D02*
X-0003128Y0014373D01*
X-0003221D01*
X-0003268Y0014439D01*
Y0014506D01*
X-0003174Y0014639D01*
X-0003268Y0014773D01*
X-0003081D01*
X-0002938Y0014373D02*
X-0002844D01*
X-0002891D02*
Y0014773D01*
X-0002844Y0014706D01*
X-0002584Y0014573D02*
X-0002654Y0014373D01*
X-0002468Y0014573D02*
X-0002608D01*
X-0002654Y0014639D01*
Y0014706D01*
X-0002608Y0014773D01*
X-0002468D01*
Y0014373D01*
X-0033740Y0006361D02*
X-0033764Y0006428D01*
Y0006494D01*
X-0033740Y0006561D01*
X-0033600D01*
X-0033577Y0006494D01*
Y0006428D01*
X-0033600Y0006361D01*
X-0033740D01*
X-0033764Y0006294D01*
Y0006228D01*
X-0033740Y0006161D01*
X-0033600D01*
X-0033577Y0006228D01*
Y0006294D01*
X-0033600Y0006361D01*
X-0033434Y0006294D02*
X-0033247D01*
X-0033340Y0006561D01*
X-0033387D01*
Y0006161D01*
X-0033034Y0006361D02*
X-0033104Y0006161D01*
X-0032917Y0006361D02*
X-0033057D01*
X-0033104Y0006428D01*
Y0006494D01*
X-0033057Y0006561D01*
X-0032917D01*
Y0006161D01*
X-0026126Y0015526D02*
X-0026059Y0015503D01*
Y0015363D01*
X-0026126Y0015340D01*
X-0026259D01*
X-0026326Y0015386D01*
Y0015526D01*
X-0026459D01*
Y0015340D01*
X-0026059Y0015670D02*
Y0015763D01*
Y0015716D02*
X-0026459D01*
X-0026392Y0015763D01*
X-0026192Y0016046D02*
X-0026059Y0015953D01*
X-0026126Y0016140D02*
X-0026059Y0016116D01*
Y0016023D01*
X-0026126Y0016000D01*
X-0026192Y0015953D01*
X-0026392D01*
X-0026459Y0015976D01*
Y0016116D01*
X-0026392Y0016140D01*
X-0026126D01*
X-0024201Y0006015D02*
Y0006202D01*
X-0024468Y0006109D01*
Y0006062D01*
X-0024068D01*
X-0024134Y0006345D02*
X-0024068Y0006369D01*
Y0006509D01*
X-0024134Y0006532D01*
X-0024401D01*
X-0024468Y0006509D01*
Y0006369D01*
X-0024401Y0006345D01*
X-0008760Y0002071D02*
Y0002164D01*
Y0002118D02*
X-0009160D01*
X-0009094Y0002164D01*
X-0008760Y0002354D02*
Y0002541D01*
X-0009027Y0002354D01*
X-0009094D01*
X-0009160Y0002378D01*
Y0002518D01*
X-0009094Y0002541D01*
X-0008827Y0002684D02*
X-0008760Y0002708D01*
Y0002848D01*
X-0008827Y0002871D01*
X-0009094D01*
X-0009160Y0002848D01*
Y0002708D01*
X-0009094Y0002684D01*
X-0034510Y0010064D02*
X-0034910Y0009924D01*
Y0010111D01*
X-0034577Y0010441D02*
X-0034510Y0010394D01*
Y0010301D01*
X-0034577Y0010254D01*
X-0034644D01*
X-0034777Y0010348D01*
X-0034910Y0010254D01*
Y0010441D01*
X-0034577Y0010584D02*
X-0034510Y0010608D01*
Y0010748D01*
X-0034577Y0010771D01*
X-0034844D01*
X-0034910Y0010748D01*
Y0010608D01*
X-0034844Y0010584D01*
X-0015741Y0000289D02*
Y0000476D01*
X-0016008Y0000382D01*
Y0000336D01*
X-0015608D01*
Y0000619D02*
Y0000806D01*
X-0015875Y0000619D01*
X-0015941D01*
X-0016008Y0000642D01*
Y0000782D01*
X-0015941Y0000806D01*
X-0015608Y0001112D02*
X-0016008D01*
X-0015608Y0001136D02*
Y0000996D01*
X-0015741Y0000949D01*
X-0015875D01*
X-0016008Y0000996D01*
Y0001136D01*
X-0022173Y0016859D02*
Y0016999D01*
X-0022239Y0017022D01*
X-0022306D01*
X-0022373Y0016999D01*
Y0016859D01*
X-0022306Y0016835D01*
X-0022239D01*
X-0021973Y0016929D01*
X-0022173Y0017329D02*
Y0017189D01*
X-0022106Y0017165D01*
X-0022039D01*
X-0021973Y0017189D01*
Y0017329D01*
X-0022039Y0017352D01*
X-0022106D01*
X-0022373Y0017259D01*
X-0022173Y0017565D02*
X-0021973Y0017495D01*
X-0022173Y0017682D02*
Y0017542D01*
X-0022239Y0017495D01*
X-0022306D01*
X-0022373Y0017542D01*
Y0017682D01*
X-0021973D01*
X-0008425Y0000556D02*
X-0008358Y0000532D01*
Y0000392D01*
X-0008425Y0000369D01*
X-0008558D01*
X-0008625Y0000416D01*
Y0000556D01*
X-0008758D01*
Y0000369D01*
X-0008358Y0000862D02*
X-0008758D01*
X-0008358Y0000886D02*
Y0000746D01*
X-0008491Y0000699D01*
X-0008625D01*
X-0008758Y0000746D01*
Y0000886D01*
X-0009759Y0012015D02*
X-0009692Y0011968D01*
Y0011875D01*
X-0009759Y0011828D01*
X-0009826D01*
X-0009959Y0011922D01*
X-0010092Y0011828D01*
Y0012015D01*
Y0012158D02*
X-0009759D01*
X-0009692Y0012182D01*
Y0012322D01*
X-0009759Y0012345D01*
X-0010092D01*
X-0005217Y0015937D02*
Y0016030D01*
Y0015983D02*
X-0005617D01*
X-0005550Y0016030D01*
X-0019610Y0016964D02*
X-0020010Y0016824D01*
Y0017011D01*
X-0019810Y0017318D02*
Y0017178D01*
X-0019744Y0017154D01*
X-0019677D01*
X-0019610Y0017178D01*
Y0017318D01*
X-0019677Y0017341D01*
X-0019744D01*
X-0020010Y0017248D01*
X-0019810Y0017554D02*
X-0019610Y0017484D01*
X-0019810Y0017671D02*
Y0017531D01*
X-0019877Y0017484D01*
X-0019944D01*
X-0020010Y0017531D01*
Y0017671D01*
X-0019610D01*
X-0004672Y0014870D02*
Y0015057D01*
X-0004939Y0014870D01*
X-0005005D01*
X-0005072Y0014894D01*
Y0015034D01*
X-0005005Y0015057D01*
X-0004672Y0015200D02*
Y0015294D01*
Y0015247D02*
X-0005072D01*
X-0005005Y0015294D01*
X-0004872Y0015554D02*
X-0004672Y0015484D01*
X-0004872Y0015670D02*
Y0015530D01*
X-0004939Y0015484D01*
X-0005005D01*
X-0005072Y0015530D01*
Y0015670D01*
X-0004672D01*
X-0011742Y0010677D02*
X-0011789Y0010610D01*
X-0011882D01*
X-0011929Y0010677D01*
Y0010744D01*
X-0011835Y0010877D01*
X-0011929Y0011010D01*
X-0011742D01*
X-0011599Y0010610D02*
X-0011505D01*
X-0011552D02*
Y0011010D01*
X-0011505Y0010944D01*
X-0011315Y0010677D02*
X-0011292Y0010610D01*
X-0011152D01*
X-0011129Y0010677D01*
Y0010944D01*
X-0011152Y0011010D01*
X-0011292D01*
X-0011315Y0010944D01*
X-0022892Y0013990D02*
Y0014176D01*
X-0023159Y0014083D01*
Y0014036D01*
X-0022759D01*
Y0014320D02*
Y0014413D01*
Y0014366D02*
X-0023159D01*
X-0023092Y0014413D01*
X-0022892Y0014696D02*
X-0022759Y0014603D01*
X-0022826Y0014790D02*
X-0022759Y0014766D01*
Y0014673D01*
X-0022826Y0014650D01*
X-0022892Y0014603D01*
X-0023092D01*
X-0023159Y0014626D01*
Y0014766D01*
X-0023092Y0014790D01*
X-0022826D01*
X-0016675Y0000476D02*
X-0016608Y0000429D01*
Y0000336D01*
X-0016675Y0000289D01*
X-0016741D01*
X-0016875Y0000382D01*
X-0017008Y0000289D01*
Y0000476D01*
X-0016608Y0000619D02*
Y0000806D01*
X-0016875Y0000619D01*
X-0016941D01*
X-0017008Y0000642D01*
Y0000782D01*
X-0016941Y0000806D01*
X-0016608Y0001112D02*
X-0017008D01*
X-0016608Y0001136D02*
Y0000996D01*
X-0016741Y0000949D01*
X-0016875D01*
X-0017008Y0000996D01*
Y0001136D01*
X-0030189Y0005272D02*
X-0030123Y0005249D01*
Y0005109D01*
X-0030189Y0005085D01*
X-0030323D01*
X-0030389Y0005132D01*
Y0005272D01*
X-0030523D01*
Y0005085D01*
X-0030256Y0005415D02*
Y0005602D01*
X-0030523Y0005509D01*
Y0005462D01*
X-0030123D01*
X-0030323Y0005815D02*
X-0030123Y0005745D01*
X-0030323Y0005932D02*
Y0005792D01*
X-0030389Y0005745D01*
X-0030456D01*
X-0030523Y0005792D01*
Y0005932D01*
X-0030123D01*
X-0007441Y0000319D02*
Y0000506D01*
X-0007708Y0000412D01*
Y0000366D01*
X-0007308D01*
Y0000812D02*
X-0007708D01*
X-0007308Y0000836D02*
Y0000696D01*
X-0007441Y0000649D01*
X-0007575D01*
X-0007708Y0000696D01*
Y0000836D01*
X-0037003Y0008576D02*
X-0037070Y0008552D01*
X-0037137D01*
X-0037203Y0008576D01*
Y0008716D01*
X-0037137Y0008739D01*
X-0037070D01*
X-0037003Y0008716D01*
Y0008576D01*
X-0036937Y0008552D01*
X-0036870D01*
X-0036803Y0008576D01*
Y0008716D01*
X-0036870Y0008739D01*
X-0036937D01*
X-0037003Y0008716D01*
X-0036937Y0008976D02*
X-0036803Y0008882D01*
X-0036870Y0009069D02*
X-0036803Y0009046D01*
Y0008952D01*
X-0036870Y0008929D01*
X-0036937Y0008882D01*
X-0037137D01*
X-0037203Y0008906D01*
Y0009046D01*
X-0037137Y0009069D01*
X-0036870D01*
X-0036473Y0001129D02*
X-0036540Y0001176D01*
X-0036607Y0001199D01*
X-0036740D01*
X-0036807Y0001176D01*
X-0036873Y0001129D01*
Y0001082D01*
X-0036807Y0001036D01*
X-0036740Y0001012D01*
X-0036607D01*
X-0036540Y0001036D01*
X-0036473Y0001082D01*
Y0001129D01*
Y0001342D02*
Y0001529D01*
X-0036740Y0001342D01*
X-0036807D01*
X-0036873Y0001366D01*
Y0001506D01*
X-0036807Y0001529D01*
X-0036473Y0001836D02*
X-0036873D01*
X-0036473Y0001859D02*
Y0001719D01*
X-0036607Y0001672D01*
X-0036740D01*
X-0036873Y0001719D01*
Y0001859D01*
X-0007060Y0003391D02*
X-0007127Y0003438D01*
X-0007194Y0003461D01*
X-0007327D01*
X-0007394Y0003438D01*
X-0007460Y0003391D01*
Y0003344D01*
X-0007394Y0003298D01*
X-0007327Y0003274D01*
X-0007194D01*
X-0007127Y0003298D01*
X-0007060Y0003344D01*
Y0003391D01*
Y0003604D02*
Y0003791D01*
X-0007327Y0003604D01*
X-0007394D01*
X-0007460Y0003628D01*
Y0003768D01*
X-0007394Y0003791D01*
X-0007127Y0003934D02*
X-0007060Y0003958D01*
Y0004098D01*
X-0007127Y0004121D01*
X-0007394D01*
X-0007460Y0004098D01*
Y0003958D01*
X-0007394Y0003934D01*
X-0036753Y0015652D02*
Y0015839D01*
X-0037020Y0015652D01*
X-0037087D01*
X-0037153Y0015676D01*
Y0015816D01*
X-0037087Y0015839D01*
X-0036887Y0016076D02*
X-0036753Y0015982D01*
X-0036820Y0016169D02*
X-0036753Y0016146D01*
Y0016052D01*
X-0036820Y0016029D01*
X-0036887Y0015982D01*
X-0037087D01*
X-0037153Y0016006D01*
Y0016146D01*
X-0037087Y0016169D01*
X-0036820D01*
X-0009579Y0019569D02*
X-0009979Y0019429D01*
Y0019616D01*
X-0009579Y0019759D02*
Y0019853D01*
Y0019806D02*
X-0009979D01*
X-0009912Y0019853D01*
X-0009646Y0020043D02*
X-0009579Y0020066D01*
Y0020206D01*
X-0009646Y0020229D01*
X-0009912D01*
X-0009979Y0020206D01*
Y0020066D01*
X-0009912Y0020043D01*
X-0002772Y0016060D02*
X-0002632D01*
X-0002609Y0016127D01*
Y0016194D01*
X-0002632Y0016260D01*
X-0002772D01*
X-0002795Y0016194D01*
Y0016127D01*
X-0002702Y0015860D01*
X-0002465Y0015927D02*
X-0002442Y0015860D01*
X-0002302D01*
X-0002279Y0015927D01*
Y0016194D01*
X-0002302Y0016260D01*
X-0002442D01*
X-0002465Y0016194D01*
X-0017608Y0000289D02*
Y0000476D01*
X-0017875Y0000289D01*
X-0017941D01*
X-0018008Y0000312D01*
Y0000452D01*
X-0017941Y0000476D01*
X-0017608Y0000619D02*
Y0000806D01*
X-0017875Y0000619D01*
X-0017941D01*
X-0018008Y0000642D01*
Y0000782D01*
X-0017941Y0000806D01*
X-0017608Y0001112D02*
X-0018008D01*
X-0017608Y0001136D02*
Y0000996D01*
X-0017741Y0000949D01*
X-0017875D01*
X-0018008Y0000996D01*
Y0001136D01*
X-0039356Y0005085D02*
Y0005272D01*
X-0039623Y0005179D01*
Y0005132D01*
X-0039223D01*
X-0039356Y0005415D02*
Y0005602D01*
X-0039623Y0005509D01*
Y0005462D01*
X-0039223D01*
X-0039423Y0005815D02*
X-0039223Y0005745D01*
X-0039423Y0005932D02*
Y0005792D01*
X-0039489Y0005745D01*
X-0039556D01*
X-0039623Y0005792D01*
Y0005932D01*
X-0039223D01*
X-0033899Y-0000507D02*
Y-0000367D01*
X-0033966Y-0000343D01*
X-0034032D01*
X-0034099Y-0000367D01*
Y-0000507D01*
X-0034032Y-0000530D01*
X-0033966D01*
X-0033699Y-0000437D01*
Y-0000200D02*
Y-0000107D01*
Y-0000153D02*
X-0034099D01*
X-0034032Y-0000107D01*
X-0033699Y0000246D02*
X-0034099D01*
X-0033699Y0000270D02*
Y0000130D01*
X-0033832Y0000083D01*
X-0033966D01*
X-0034099Y0000130D01*
Y0000270D01*
X-0037704Y0011700D02*
Y0011840D01*
X-0037771Y0011864D01*
X-0037837D01*
X-0037904Y0011840D01*
Y0011700D01*
X-0037837Y0011677D01*
X-0037771D01*
X-0037504Y0011770D01*
X-0037571Y0012194D02*
X-0037504Y0012147D01*
Y0012054D01*
X-0037571Y0012007D01*
X-0037637D01*
X-0037771Y0012100D01*
X-0037904Y0012007D01*
Y0012194D01*
X-0037571Y0012337D02*
X-0037504Y0012360D01*
Y0012500D01*
X-0037571Y0012524D01*
X-0037837D01*
X-0037904Y0012500D01*
Y0012360D01*
X-0037837Y0012337D01*
X-0003179Y0011003D02*
Y0011143D01*
X-0003246Y0011166D01*
X-0003312D01*
X-0003379Y0011143D01*
Y0011003D01*
X-0003312Y0010979D01*
X-0003246D01*
X-0002979Y0011073D01*
Y0011309D02*
Y0011403D01*
Y0011356D02*
X-0003379D01*
X-0003312Y0011403D01*
X-0003046Y0011593D02*
X-0002979Y0011616D01*
Y0011756D01*
X-0003046Y0011779D01*
X-0003312D01*
X-0003379Y0011756D01*
Y0011616D01*
X-0003312Y0011593D01*
X-0012701Y0014823D02*
X-0012654Y0014889D01*
X-0012631Y0014956D01*
Y0015089D01*
X-0012654Y0015156D01*
X-0012701Y0015223D01*
X-0012748D01*
X-0012794Y0015156D01*
X-0012818Y0015089D01*
Y0014956D01*
X-0012794Y0014889D01*
X-0012748Y0014823D01*
X-0012701D01*
X-0012488D02*
X-0012394D01*
X-0012441D02*
Y0015223D01*
X-0012394Y0015156D01*
X-0012134Y0015023D02*
X-0012204Y0014823D01*
X-0012018Y0015023D02*
X-0012158D01*
X-0012204Y0015089D01*
Y0015156D01*
X-0012158Y0015223D01*
X-0012018D01*
Y0014823D01*
X-0035287Y0015652D02*
Y0015839D01*
X-0035553Y0015746D01*
Y0015699D01*
X-0035153D01*
X-0035287Y0016076D02*
X-0035153Y0015982D01*
X-0035220Y0016169D02*
X-0035153Y0016146D01*
Y0016052D01*
X-0035220Y0016029D01*
X-0035287Y0015982D01*
X-0035487D01*
X-0035553Y0016006D01*
Y0016146D01*
X-0035487Y0016169D01*
X-0035220D01*
X-0018608Y0000286D02*
Y0000379D01*
Y0000332D02*
X-0019008D01*
X-0018941Y0000379D01*
X-0018608Y0000569D02*
Y0000756D01*
X-0018875Y0000569D01*
X-0018941D01*
X-0019008Y0000592D01*
Y0000732D01*
X-0018941Y0000756D01*
X-0018608Y0001062D02*
X-0019008D01*
X-0018608Y0001086D02*
Y0000946D01*
X-0018741Y0000899D01*
X-0018875D01*
X-0019008Y0000946D01*
Y0001086D01*
X-0002662Y0016610D02*
X-0002615Y0016677D01*
X-0002592Y0016744D01*
Y0016877D01*
X-0002615Y0016944D01*
X-0002662Y0017010D01*
X-0002709D01*
X-0002755Y0016944D01*
X-0002779Y0016877D01*
Y0016744D01*
X-0002755Y0016677D01*
X-0002709Y0016610D01*
X-0002662D01*
X-0002449D02*
X-0002355D01*
X-0002402D02*
Y0017010D01*
X-0002355Y0016944D01*
X-0002165Y0016677D02*
X-0002142Y0016610D01*
X-0002002D01*
X-0001979Y0016677D01*
Y0016944D01*
X-0002002Y0017010D01*
X-0002142D01*
X-0002165Y0016944D01*
X-0034153Y0008526D02*
Y0008666D01*
X-0034220Y0008689D01*
X-0034287D01*
X-0034353Y0008666D01*
Y0008526D01*
X-0034287Y0008502D01*
X-0034220D01*
X-0033953Y0008596D01*
X-0034087Y0008926D02*
X-0033953Y0008832D01*
X-0034020Y0009019D02*
X-0033953Y0008996D01*
Y0008902D01*
X-0034020Y0008879D01*
X-0034087Y0008832D01*
X-0034287D01*
X-0034353Y0008856D01*
Y0008996D01*
X-0034287Y0009019D01*
X-0034020D01*
X-0004317Y0016850D02*
Y0016943D01*
Y0016897D02*
X-0004717D01*
X-0004650Y0016943D01*
X-0004317Y0017227D02*
X-0004717D01*
Y0017133D02*
Y0017320D01*
X-0004317Y0017463D02*
X-0004717Y0017603D01*
Y0017463D02*
X-0004317Y0017603D01*
X-0031823Y0005249D02*
Y0005109D01*
X-0031756Y0005085D01*
X-0031689D01*
X-0031623Y0005109D01*
Y0005249D01*
X-0031689Y0005272D01*
X-0031756D01*
X-0032023Y0005179D01*
X-0031756Y0005415D02*
Y0005602D01*
X-0032023Y0005509D01*
Y0005462D01*
X-0031623D01*
X-0031823Y0005815D02*
X-0031623Y0005745D01*
X-0031823Y0005932D02*
Y0005792D01*
X-0031889Y0005745D01*
X-0031956D01*
X-0032023Y0005792D01*
Y0005932D01*
X-0031623D01*
X-0024815Y0006004D02*
Y0006191D01*
X-0025082Y0006004D01*
X-0025149D01*
X-0025215Y0006028D01*
Y0006168D01*
X-0025149Y0006191D01*
X-0025015Y0006404D02*
X-0024815Y0006334D01*
X-0025015Y0006521D02*
Y0006381D01*
X-0025082Y0006334D01*
X-0025149D01*
X-0025215Y0006381D01*
Y0006521D01*
X-0024815D01*
X-0014425Y0011810D02*
X-0014332D01*
X-0014379D02*
Y0012210D01*
X-0014332Y0012144D01*
X-0014142Y0011810D02*
X-0013979D01*
Y0012210D01*
X-0006460Y0018978D02*
X-0006527Y0018954D01*
X-0006594D01*
X-0006660Y0018978D01*
Y0019118D01*
X-0006594Y0019141D01*
X-0006527D01*
X-0006460Y0019118D01*
Y0018978D01*
X-0006394Y0018954D01*
X-0006327D01*
X-0006260Y0018978D01*
Y0019118D01*
X-0006327Y0019141D01*
X-0006394D01*
X-0006460Y0019118D01*
Y0019354D02*
X-0006260Y0019284D01*
X-0006460Y0019471D02*
Y0019331D01*
X-0006527Y0019284D01*
X-0006594D01*
X-0006660Y0019331D01*
Y0019471D01*
X-0006260D01*
X-0007418Y0009873D02*
X-0007231D01*
X-0007418Y0010139D01*
Y0010206D01*
X-0007394Y0010273D01*
X-0007254D01*
X-0007231Y0010206D01*
X-0007088Y0009873D02*
X-0006994D01*
X-0007041D02*
Y0010273D01*
X-0006994Y0010206D01*
X-0006804Y0009939D02*
X-0006781Y0009873D01*
X-0006641D01*
X-0006618Y0009939D01*
Y0010206D01*
X-0006641Y0010273D01*
X-0006781D01*
X-0006804Y0010206D01*
X-0029473Y0006762D02*
Y0006855D01*
Y0006809D02*
X-0029873D01*
X-0029806Y0006855D01*
X-0029539Y0007045D02*
X-0029473Y0007069D01*
Y0007209D01*
X-0029539Y0007232D01*
X-0029806D01*
X-0029873Y0007209D01*
Y0007069D01*
X-0029806Y0007045D01*
X-0037923Y0003885D02*
Y0004072D01*
X-0038189Y0003885D01*
X-0038256D01*
X-0038323Y0003909D01*
Y0004049D01*
X-0038256Y0004072D01*
X-0038056Y0004215D02*
Y0004402D01*
X-0038323Y0004309D01*
Y0004262D01*
X-0037923D01*
X-0038123Y0004615D02*
X-0037923Y0004545D01*
X-0038123Y0004732D02*
Y0004592D01*
X-0038189Y0004545D01*
X-0038256D01*
X-0038323Y0004592D01*
Y0004732D01*
X-0037923D01*
X-0033840Y0004424D02*
X-0033746D01*
X-0033793D02*
Y0004824D01*
X-0033746Y0004757D01*
X-0033556Y0004424D02*
X-0033463D01*
X-0033510D02*
Y0004824D01*
X-0033463Y0004757D01*
X-0033180Y0004557D02*
X-0033273Y0004424D01*
X-0033086Y0004491D02*
X-0033110Y0004424D01*
X-0033203D01*
X-0033226Y0004491D01*
X-0033273Y0004557D01*
Y0004757D01*
X-0033250Y0004824D01*
X-0033110D01*
X-0033086Y0004757D01*
Y0004491D01*
X-0025523Y0006062D02*
Y0006155D01*
Y0006109D02*
X-0025923D01*
X-0025856Y0006155D01*
X-0025723Y0006415D02*
X-0025523Y0006345D01*
X-0025723Y0006532D02*
Y0006392D01*
X-0025789Y0006345D01*
X-0025856D01*
X-0025923Y0006392D01*
Y0006532D01*
X-0025523D01*
X-0033920Y0019239D02*
X-0033853Y0019192D01*
Y0019099D01*
X-0033920Y0019052D01*
X-0033987D01*
X-0034120Y0019146D01*
X-0034253Y0019052D01*
Y0019239D01*
X-0033987Y0019476D02*
X-0033853Y0019382D01*
X-0033920Y0019569D02*
X-0033853Y0019546D01*
Y0019452D01*
X-0033920Y0019429D01*
X-0033987Y0019382D01*
X-0034187D01*
X-0034253Y0019406D01*
Y0019546D01*
X-0034187Y0019569D01*
X-0033920D01*
X-0031253Y0008716D02*
Y0008576D01*
X-0031187Y0008552D01*
X-0031120D01*
X-0031053Y0008576D01*
Y0008716D01*
X-0031120Y0008739D01*
X-0031187D01*
X-0031453Y0008646D01*
X-0031187Y0008976D02*
X-0031053Y0008882D01*
X-0031120Y0009069D02*
X-0031053Y0009046D01*
Y0008952D01*
X-0031120Y0008929D01*
X-0031187Y0008882D01*
X-0031387D01*
X-0031453Y0008906D01*
Y0009046D01*
X-0031387Y0009069D01*
X-0031120D01*
X-0032503Y0008692D02*
X-0032903Y0008552D01*
Y0008739D01*
X-0032637Y0008976D02*
X-0032503Y0008882D01*
X-0032570Y0009069D02*
X-0032503Y0009046D01*
Y0008952D01*
X-0032570Y0008929D01*
X-0032637Y0008882D01*
X-0032837D01*
X-0032903Y0008906D01*
Y0009046D01*
X-0032837Y0009069D01*
X-0032570D01*
X-0010441Y0000286D02*
Y0000472D01*
X-0010708Y0000379D01*
Y0000332D01*
X-0010308D01*
Y0000616D02*
Y0000709D01*
Y0000662D02*
X-0010708D01*
X-0010641Y0000709D01*
X-0010308Y0001062D02*
X-0010708D01*
X-0010308Y0001086D02*
Y0000946D01*
X-0010441Y0000899D01*
X-0010575D01*
X-0010708Y0000946D01*
Y0001086D01*
X-0025152Y0019880D02*
X-0025292D01*
X-0025316Y0019813D01*
Y0019746D01*
X-0025292Y0019680D01*
X-0025152D01*
X-0025129Y0019746D01*
Y0019813D01*
X-0025222Y0020080D01*
X-0024986Y0019680D02*
X-0024892D01*
X-0024939D02*
Y0020080D01*
X-0024892Y0020013D01*
X-0024609Y0019813D02*
X-0024702Y0019680D01*
X-0024516Y0019746D02*
X-0024539Y0019680D01*
X-0024632D01*
X-0024656Y0019746D01*
X-0024702Y0019813D01*
Y0020013D01*
X-0024679Y0020080D01*
X-0024539D01*
X-0024516Y0020013D01*
Y0019746D01*
X-0008760Y0018684D02*
Y0018544D01*
X-0008694Y0018521D01*
X-0008627D01*
X-0008560Y0018544D01*
Y0018684D01*
X-0008627Y0018708D01*
X-0008694D01*
X-0008960Y0018614D01*
X-0008560Y0018851D02*
Y0018944D01*
Y0018898D02*
X-0008960D01*
X-0008894Y0018944D01*
X-0008627Y0019134D02*
X-0008560Y0019158D01*
Y0019298D01*
X-0008627Y0019321D01*
X-0008894D01*
X-0008960Y0019298D01*
Y0019158D01*
X-0008894Y0019134D01*
X-0037439Y0004489D02*
X-0037486Y0004422D01*
X-0037579D01*
X-0037626Y0004489D01*
Y0004555D01*
X-0037533Y0004689D01*
X-0037626Y0004822D01*
X-0037439D01*
X-0037296Y0004555D02*
X-0037109D01*
X-0037203Y0004822D01*
X-0037249D01*
Y0004422D01*
X-0036896Y0004622D02*
X-0036966Y0004422D01*
X-0036779Y0004622D02*
X-0036919D01*
X-0036966Y0004689D01*
Y0004755D01*
X-0036919Y0004822D01*
X-0036779D01*
Y0004422D01*
X-0012521Y0017173D02*
X-0012428D01*
X-0012474D02*
Y0017573D01*
X-0012428Y0017506D01*
X-0012238Y0017173D02*
X-0012144D01*
X-0012191D02*
Y0017573D01*
X-0012144Y0017506D01*
X-0011954Y0017239D02*
X-0011931Y0017173D01*
X-0011791D01*
X-0011768Y0017239D01*
Y0017506D01*
X-0011791Y0017573D01*
X-0011931D01*
X-0011954Y0017506D01*
X-0025406Y0012685D02*
Y0012872D01*
X-0025673Y0012779D01*
Y0012732D01*
X-0025273D01*
X-0025473Y0013179D02*
Y0013039D01*
X-0025406Y0013015D01*
X-0025339D01*
X-0025273Y0013039D01*
Y0013179D01*
X-0025339Y0013202D01*
X-0025406D01*
X-0025673Y0013109D01*
X-0025473Y0013415D02*
X-0025273Y0013345D01*
X-0025473Y0013532D02*
Y0013392D01*
X-0025539Y0013345D01*
X-0025606D01*
X-0025673Y0013392D01*
Y0013532D01*
X-0025273D01*
X-0021326Y0019680D02*
X-0021466Y0020080D01*
X-0021279D01*
X-0021136Y0019680D02*
X-0021042D01*
X-0021089D02*
Y0020080D01*
X-0021042Y0020013D01*
X-0020759Y0019813D02*
X-0020852Y0019680D01*
X-0020666Y0019746D02*
X-0020689Y0019680D01*
X-0020782D01*
X-0020806Y0019746D01*
X-0020852Y0019813D01*
Y0020013D01*
X-0020829Y0020080D01*
X-0020689D01*
X-0020666Y0020013D01*
Y0019746D01*
X-0026639Y0005902D02*
X-0026573Y0005855D01*
Y0005762D01*
X-0026639Y0005715D01*
X-0026706D01*
X-0026839Y0005809D01*
X-0026973Y0005715D01*
Y0005902D01*
X-0026639Y0006045D02*
X-0026573Y0006069D01*
Y0006209D01*
X-0026639Y0006232D01*
X-0026906D01*
X-0026973Y0006209D01*
Y0006069D01*
X-0026906Y0006045D01*
X-0038070Y0008789D02*
X-0038003Y0008766D01*
Y0008626D01*
X-0038070Y0008602D01*
X-0038203D01*
X-0038270Y0008649D01*
Y0008789D01*
X-0038403D01*
Y0008602D01*
X-0038137Y0009026D02*
X-0038003Y0008932D01*
X-0038070Y0009119D02*
X-0038003Y0009096D01*
Y0009002D01*
X-0038070Y0008979D01*
X-0038137Y0008932D01*
X-0038337D01*
X-0038403Y0008956D01*
Y0009096D01*
X-0038337Y0009119D01*
X-0038070D01*
X-0012561Y0014223D02*
X-0012421D01*
X-0012398Y0014289D01*
Y0014356D01*
X-0012421Y0014423D01*
X-0012561D01*
X-0012584Y0014356D01*
Y0014289D01*
X-0012491Y0014023D01*
X-0012184Y0014223D02*
X-0012254Y0014023D01*
X-0012068Y0014223D02*
X-0012208D01*
X-0012254Y0014289D01*
Y0014356D01*
X-0012208Y0014423D01*
X-0012068D01*
Y0014023D01*
X-0012808Y0000312D02*
X-0012875Y0000289D01*
X-0012941D01*
X-0013008Y0000312D01*
Y0000452D01*
X-0012941Y0000476D01*
X-0012875D01*
X-0012808Y0000452D01*
Y0000312D01*
X-0012741Y0000289D01*
X-0012675D01*
X-0012608Y0000312D01*
Y0000452D01*
X-0012675Y0000476D01*
X-0012741D01*
X-0012808Y0000452D01*
X-0012608Y0000619D02*
Y0000806D01*
X-0012875Y0000619D01*
X-0012941D01*
X-0013008Y0000642D01*
Y0000782D01*
X-0012941Y0000806D01*
X-0012608Y0001112D02*
X-0013008D01*
X-0012608Y0001136D02*
Y0000996D01*
X-0012741Y0000949D01*
X-0012875D01*
X-0013008Y0000996D01*
Y0001136D01*
X-0030080Y0003701D02*
X-0030146Y0003747D01*
X-0030213Y0003771D01*
X-0030346D01*
X-0030413Y0003747D01*
X-0030480Y0003701D01*
Y0003654D01*
X-0030413Y0003607D01*
X-0030346Y0003584D01*
X-0030213D01*
X-0030146Y0003607D01*
X-0030080Y0003654D01*
Y0003701D01*
Y0003914D02*
Y0004007D01*
Y0003961D02*
X-0030480D01*
X-0030413Y0004007D01*
X-0030213Y0004291D02*
X-0030080Y0004197D01*
X-0030146Y0004384D02*
X-0030080Y0004361D01*
Y0004267D01*
X-0030146Y0004244D01*
X-0030213Y0004197D01*
X-0030413D01*
X-0030480Y0004221D01*
Y0004361D01*
X-0030413Y0004384D01*
X-0030146D01*
X-0004260Y0011994D02*
X-0004327Y0011971D01*
X-0004394D01*
X-0004460Y0011994D01*
Y0012134D01*
X-0004394Y0012158D01*
X-0004327D01*
X-0004260Y0012134D01*
Y0011994D01*
X-0004194Y0011971D01*
X-0004127D01*
X-0004060Y0011994D01*
Y0012134D01*
X-0004127Y0012158D01*
X-0004194D01*
X-0004260Y0012134D01*
X-0004060Y0012301D02*
Y0012394D01*
Y0012348D02*
X-0004460D01*
X-0004394Y0012394D01*
X-0004127Y0012584D02*
X-0004060Y0012608D01*
Y0012748D01*
X-0004127Y0012771D01*
X-0004394D01*
X-0004460Y0012748D01*
Y0012608D01*
X-0004394Y0012584D01*
X-0042123Y0001149D02*
X-0042523Y0001009D01*
Y0001196D01*
X-0042123Y0001339D02*
Y0001432D01*
Y0001386D02*
X-0042523D01*
X-0042457Y0001432D01*
X-0042123Y0001786D02*
X-0042523D01*
X-0042123Y0001809D02*
Y0001669D01*
X-0042257Y0001622D01*
X-0042390D01*
X-0042523Y0001669D01*
Y0001809D01*
X-0001911Y0015073D02*
X-0001724D01*
X-0001911Y0015339D01*
Y0015406D01*
X-0001888Y0015473D01*
X-0001748D01*
X-0001724Y0015406D01*
X-0001581Y0015073D02*
X-0001418D01*
Y0015473D01*
X-0033030Y0003180D02*
X-0035550D01*
Y0004320D01*
X-0032850D01*
Y0003360D01*
X-0033030Y0003180D01*
X-0035175Y0009825D02*
Y0008675D01*
X-0035820D01*
Y0009825D01*
X-0035175D01*
X-0021175Y0016325D02*
Y0015175D01*
X-0021820D01*
Y0016325D01*
X-0021175D01*
X-0012150Y0000100D02*
Y0000150D01*
X-0011500D01*
X-0011350Y0000000D01*
Y-0001150D01*
X-0012150D01*
Y0000100D01*
X-0006900D02*
Y0000150D01*
X-0006250D01*
X-0006100Y0000000D01*
Y-0001150D01*
X-0006900D01*
Y0000100D01*
X-0036925Y0019575D02*
Y0018425D01*
X-0037570D01*
Y0019575D01*
X-0036925D01*
X-0037936Y-0000736D02*
X-0039650Y-0000737D01*
X-0040295D01*
Y0000837D01*
X-0037490Y0000840D01*
X-0037310Y0000660D01*
Y-0000600D01*
X-0037480Y-0000740D01*
X-0037936Y-0000736D01*
X-0037330Y-0000066D02*
X-0037400D01*
X-0037330Y-0000120D02*
X-0037400D01*
X-0037330Y-0000174D02*
X-0037400D01*
X-0037330Y-0000228D02*
X-0037400D01*
X-0037330Y-0000282D02*
X-0037400D01*
X-0037330Y-0000336D02*
X-0037400D01*
X-0037330Y-0000390D02*
X-0037400D01*
X-0037330Y-0000444D02*
X-0037400D01*
X-0037330Y-0000498D02*
X-0037400D01*
X-0037330Y-0000552D02*
X-0037400D01*
X-0037337Y-0000606D02*
X-0037400D01*
X-0037330Y0000528D02*
X-0037400D01*
X-0037330Y0000474D02*
X-0037400D01*
X-0037330Y0000420D02*
X-0037400D01*
X-0037330Y0000366D02*
X-0037400D01*
X-0037330Y0000312D02*
X-0037400D01*
X-0037330Y0000258D02*
X-0037400D01*
X-0037330Y0000204D02*
X-0037400D01*
X-0037330Y0000150D02*
X-0037400D01*
X-0037330Y0000096D02*
X-0037400D01*
X-0037330Y0000042D02*
X-0037400D01*
X-0037330Y-0000012D02*
X-0037400D01*
X-0037330Y0000660D02*
Y-0000600D01*
X-0037390Y-0000650D01*
X-0037410Y-0000680D01*
X-0037430Y-0000700D01*
X-0037336Y0000666D02*
Y-0000605D01*
X-0037390Y0000720D02*
Y-0000650D01*
X-0037360Y0000690D02*
X-0037400D01*
X-0037330Y0000636D02*
X-0037400D01*
X-0037330Y0000582D02*
X-0037400D01*
X-0037390Y-0000660D02*
X-0037430Y-0000700D01*
X-0037400Y-0000650D02*
X-0037390Y-0000660D01*
X-0037400Y0000730D02*
Y-0000650D01*
Y0000730D02*
X-0037330Y0000660D01*
X-0037543Y-0000630D02*
X-0037656D01*
X-0037566Y-0000560D02*
Y-0000659D01*
X-0037620Y-0000553D02*
Y-0000666D01*
X-0037550Y-0000576D02*
X-0037649D01*
X-0038480Y-0000720D02*
Y0000830D01*
X-0011825Y0016575D02*
X-0010675D01*
Y0015930D01*
X-0011825D01*
Y0016575D01*
X-0024825Y0016675D02*
Y0017825D01*
X-0024180D01*
Y0016675D01*
X-0024825D01*
X-0003900Y0000100D02*
Y0000150D01*
X-0003250D01*
X-0003100Y0000000D01*
Y-0001150D01*
X-0003900D01*
Y0000100D01*
X-0002900D02*
Y0000150D01*
X-0002250D01*
X-0002100Y0000000D01*
Y-0001150D01*
X-0002900D01*
Y0000100D01*
X-0036175Y0006075D02*
Y0004925D01*
X-0036820D01*
Y0006075D01*
X-0036175D01*
X-0004900Y0000100D02*
Y0000150D01*
X-0004250D01*
X-0004100Y0000000D01*
Y-0001150D01*
X-0004900D01*
Y0000100D01*
X-0015150D02*
Y0000150D01*
X-0014500D01*
X-0014350Y0000000D01*
Y-0001150D01*
X-0015150D01*
Y0000100D01*
X-0005900D02*
Y0000150D01*
X-0005250D01*
X-0005100Y0000000D01*
Y-0001150D01*
X-0005900D01*
Y0000100D01*
X-0016150D02*
Y0000150D01*
X-0015500D01*
X-0015350Y0000000D01*
Y-0001150D01*
X-0016150D01*
Y0000100D01*
X-0008900D02*
Y0000150D01*
X-0008250D01*
X-0008100Y0000000D01*
Y-0001150D01*
X-0008900D01*
Y0000100D01*
X-0017150D02*
Y0000150D01*
X-0016500D01*
X-0016350Y0000000D01*
Y-0001150D01*
X-0017150D01*
Y0000100D01*
X-0011575Y0018325D02*
X-0010425D01*
Y0017680D01*
X-0011575D01*
Y0018325D01*
X-0019050Y0012400D02*
X-0017450D01*
Y0010600D01*
X-0018150D01*
X-0018250Y0010700D01*
X-0018350Y0010600D01*
X-0019050D01*
Y0012400D01*
X-0024175Y0014825D02*
Y0013675D01*
X-0024820D01*
Y0014825D01*
X-0024175D01*
X-0036570Y0010425D02*
Y0011575D01*
X-0035925D01*
Y0010425D01*
X-0036570D01*
X-0028325Y0006425D02*
Y0007575D01*
X-0027680D01*
Y0006425D01*
X-0028325D01*
X-0007900Y0000100D02*
Y0000150D01*
X-0007250D01*
X-0007100Y0000000D01*
Y-0001150D01*
X-0007900D01*
Y0000100D01*
X-0018150D02*
Y0000150D01*
X-0017500D01*
X-0017350Y0000000D01*
Y-0001150D01*
X-0018150D01*
Y0000100D01*
X-0022100Y0019550D02*
Y0017950D01*
X-0023900D01*
Y0018650D01*
X-0023800Y0018750D01*
X-0023900Y0018850D01*
Y0019550D01*
X-0022100D01*
X-0019150Y0000100D02*
Y0000150D01*
X-0018500D01*
X-0018350Y0000000D01*
Y-0001150D01*
X-0019150D01*
Y0000100D01*
X-0010900D02*
Y0000150D01*
X-0010250D01*
X-0010100Y0000000D01*
Y-0001150D01*
X-0010900D01*
Y0000100D01*
X-0011825Y0013325D02*
X-0010675D01*
Y0012680D01*
X-0011825D01*
Y0013325D01*
X-0013150Y0000100D02*
Y0000150D01*
X-0012500D01*
X-0012350Y0000000D01*
Y-0001150D01*
X-0013150D01*
Y0000100D01*
X-0004575Y0014825D02*
X-0003425D01*
Y0014180D01*
X-0004575D01*
Y0014825D01*
X-0032925Y0006075D02*
Y0004925D01*
X-0033570D01*
Y0006075D01*
X-0032925D01*
X-0024100Y0016550D02*
Y0014950D01*
X-0025900D01*
Y0015650D01*
X-0025800Y0015750D01*
X-0025900Y0015850D01*
Y0016550D01*
X-0024100D01*
X-0024570Y0006675D02*
Y0007825D01*
X-0023925D01*
Y0006675D01*
X-0024570D01*
X-0007925Y0003075D02*
Y0001925D01*
X-0008570D01*
Y0003075D01*
X-0007925D01*
X-0034425Y0009825D02*
Y0008675D01*
X-0035070D01*
Y0009825D01*
X-0034425D01*
X-0021825Y0016675D02*
Y0017825D01*
X-0021180D01*
Y0016675D01*
X-0021825D01*
X-0006000Y0015550D02*
Y0012500D01*
X-0009500D01*
Y0016000D01*
X-0006450D01*
X-0006000Y0015550D01*
X-0005848Y0016044D02*
Y0015956D01*
X-0005902Y0016124D02*
Y0015876D01*
X-0005956Y0016152D02*
Y0015848D01*
X-0006010Y0016158D02*
Y0015842D01*
X-0006064Y0016144D02*
Y0015855D01*
X-0006118Y0016105D02*
Y0015895D01*
X-0005956Y0016152D02*
X-0006044D01*
X-0005876Y0016098D02*
X-0006124D01*
X-0005848Y0016044D02*
X-0006152D01*
X-0005842Y0015990D02*
X-0006158D01*
X-0005855Y0015936D02*
X-0006144D01*
X-0005895Y0015882D02*
X-0006105D01*
X-0020175Y0017825D02*
Y0016675D01*
X-0020820D01*
Y0017825D01*
X-0020175D01*
X-0003425Y0014925D02*
X-0004575D01*
Y0015570D01*
X-0003425D01*
Y0014925D01*
X-0010925Y0011175D02*
X-0012075D01*
Y0011820D01*
X-0010925D01*
Y0011175D01*
X-0022100Y0016550D02*
Y0014950D01*
X-0023900D01*
Y0015650D01*
X-0023800Y0015750D01*
X-0023900Y0015850D01*
Y0016550D01*
X-0022100D01*
X-0031325Y0004925D02*
Y0006075D01*
X-0030680D01*
Y0004925D01*
X-0031325D01*
X-0006925Y0018825D02*
Y0017675D01*
X-0007570D01*
Y0018825D01*
X-0006925D01*
X-0036825Y0018425D02*
Y0019575D01*
X-0036180D01*
Y0018425D01*
X-0036825D01*
X-0035700Y0006600D02*
X-0037300D01*
Y0008400D01*
X-0036600D01*
X-0036500Y0008300D01*
X-0036400Y0008400D01*
X-0035700D01*
Y0006600D01*
X-0034836Y-0000686D02*
X-0036550Y-0000687D01*
X-0037195D01*
Y0000887D01*
X-0034390Y0000890D01*
X-0034210Y0000710D01*
Y-0000550D01*
X-0034380Y-0000690D01*
X-0034836Y-0000686D01*
X-0034230Y-0000016D02*
X-0034300D01*
X-0034230Y-0000070D02*
X-0034300D01*
X-0034230Y-0000124D02*
X-0034300D01*
X-0034230Y-0000178D02*
X-0034300D01*
X-0034230Y-0000232D02*
X-0034300D01*
X-0034230Y-0000286D02*
X-0034300D01*
X-0034230Y-0000340D02*
X-0034300D01*
X-0034230Y-0000394D02*
X-0034300D01*
X-0034230Y-0000448D02*
X-0034300D01*
X-0034230Y-0000502D02*
X-0034300D01*
X-0034237Y-0000556D02*
X-0034300D01*
X-0034230Y0000578D02*
X-0034300D01*
X-0034230Y0000524D02*
X-0034300D01*
X-0034230Y0000470D02*
X-0034300D01*
X-0034230Y0000416D02*
X-0034300D01*
X-0034230Y0000362D02*
X-0034300D01*
X-0034230Y0000308D02*
X-0034300D01*
X-0034230Y0000254D02*
X-0034300D01*
X-0034230Y0000200D02*
X-0034300D01*
X-0034230Y0000146D02*
X-0034300D01*
X-0034230Y0000092D02*
X-0034300D01*
X-0034230Y0000038D02*
X-0034300D01*
X-0034230Y0000710D02*
Y-0000550D01*
X-0034290Y-0000600D01*
X-0034310Y-0000630D01*
X-0034330Y-0000650D01*
X-0034236Y0000716D02*
Y-0000555D01*
X-0034290Y0000770D02*
Y-0000600D01*
X-0034260Y0000740D02*
X-0034300D01*
X-0034230Y0000686D02*
X-0034300D01*
X-0034230Y0000632D02*
X-0034300D01*
X-0034290Y-0000610D02*
X-0034330Y-0000650D01*
X-0034300Y-0000600D02*
X-0034290Y-0000610D01*
X-0034300Y0000780D02*
Y-0000600D01*
Y0000780D02*
X-0034230Y0000710D01*
X-0034443Y-0000580D02*
X-0034556D01*
X-0034466Y-0000510D02*
Y-0000609D01*
X-0034520Y-0000503D02*
Y-0000616D01*
X-0034450Y-0000526D02*
X-0034549D01*
X-0035380Y-0000670D02*
Y0000880D01*
X-0006925Y0003075D02*
Y0001925D01*
X-0007570D01*
Y0003075D01*
X-0006925D01*
X-0036200Y0016350D02*
X-0037800D01*
Y0018150D01*
X-0037100D01*
X-0037000Y0018050D01*
X-0036900Y0018150D01*
X-0036200D01*
Y0016350D01*
X-0009300Y0017250D02*
X-0010350D01*
Y0019250D01*
X-0009150D01*
Y0017250D01*
X-0009300D01*
X-0002925Y0015675D02*
X-0004075D01*
Y0016320D01*
X-0002925D01*
Y0015675D01*
X-0039075Y0004925D02*
Y0006075D01*
X-0038430D01*
Y0004925D01*
X-0039075D01*
X-0032014Y0001814D02*
X-0032013Y0000100D01*
Y-0000545D01*
X-0033587D01*
X-0033590Y0002260D01*
X-0033410Y0002440D01*
X-0032150D01*
X-0032010Y0002270D01*
X-0032014Y0001814D01*
X-0032954Y0002420D02*
Y0002350D01*
X-0033008Y0002420D02*
Y0002350D01*
X-0033062Y0002420D02*
Y0002350D01*
X-0033116Y0002420D02*
Y0002350D01*
X-0033170Y0002420D02*
Y0002350D01*
X-0033224Y0002420D02*
Y0002350D01*
X-0033278Y0002420D02*
Y0002350D01*
X-0033332Y0002420D02*
Y0002350D01*
X-0033386Y0002420D02*
Y0002350D01*
X-0033440Y0002390D02*
Y0002350D01*
X-0032145Y0002414D02*
X-0033416D01*
X-0032360Y0002420D02*
Y0002350D01*
X-0032414Y0002420D02*
Y0002350D01*
X-0032468Y0002420D02*
Y0002350D01*
X-0032522Y0002420D02*
Y0002350D01*
X-0032576Y0002420D02*
Y0002350D01*
X-0032630Y0002420D02*
Y0002350D01*
X-0032684Y0002420D02*
Y0002350D01*
X-0032738Y0002420D02*
Y0002350D01*
X-0032792Y0002420D02*
Y0002350D01*
X-0032846Y0002420D02*
Y0002350D01*
X-0032900Y0002420D02*
Y0002350D01*
X-0032150Y0002420D02*
X-0033410D01*
X-0032150D02*
X-0032100Y0002360D01*
X-0032070Y0002340D01*
X-0032050Y0002320D01*
X-0032144Y0002413D02*
Y0002350D01*
X-0032198Y0002420D02*
Y0002350D01*
X-0032252Y0002420D02*
Y0002350D01*
X-0032306Y0002420D02*
Y0002350D01*
X-0032100Y0002360D02*
X-0033470D01*
X-0032090D02*
X-0032050Y0002320D01*
X-0032090Y0002360D02*
X-0032100Y0002350D01*
X-0033480D01*
X-0033410Y0002420D02*
X-0033480Y0002350D01*
X-0032083Y0002130D02*
X-0032196D01*
X-0032106Y0002199D02*
Y0002100D01*
X-0032160Y0002206D02*
Y0002093D01*
X-0032090Y0002184D02*
X-0032189D01*
X-0032030Y0001270D02*
X-0033580D01*
X-0038200Y0011500D02*
X-0037150D01*
Y0009500D01*
X-0038350D01*
Y0011500D01*
X-0038200D01*
X-0002800Y0012000D02*
X-0003850D01*
Y0014000D01*
X-0002650D01*
Y0012000D01*
X-0002800D01*
X-0011825Y0015325D02*
X-0010675D01*
Y0014680D01*
X-0011825D01*
Y0015325D01*
X-0034450Y0016350D02*
X-0036050D01*
Y0018150D01*
X-0035350D01*
X-0035250Y0018050D01*
X-0035150Y0018150D01*
X-0034450D01*
Y0016350D01*
X-0025825Y0016675D02*
Y0017825D01*
X-0025180D01*
Y0016675D01*
X-0025825D01*
X-0002925Y0016425D02*
X-0004075D01*
Y0017070D01*
X-0002925D01*
Y0016425D01*
X-0033950Y0006600D02*
X-0035550D01*
Y0008400D01*
X-0034850D01*
X-0034750Y0008300D01*
X-0034650Y0008400D01*
X-0033950D01*
Y0006600D01*
X-0032825Y0004925D02*
Y0006075D01*
X-0032180D01*
Y0004925D01*
X-0032825D01*
X-0024680Y0007825D02*
Y0006675D01*
X-0025325D01*
Y0007825D01*
X-0024680D01*
X-0012675Y0011675D02*
X-0013825D01*
Y0012320D01*
X-0012675D01*
Y0011675D01*
X-0006175Y0018825D02*
Y0017675D01*
X-0006820D01*
Y0018825D01*
X-0006175D01*
X-0007575Y0011075D02*
X-0006425D01*
Y0010430D01*
X-0007575D01*
Y0011075D01*
X-0029325Y0006425D02*
Y0007575D01*
X-0028680D01*
Y0006425D01*
X-0029325D01*
X-0038325Y0004925D02*
Y0006075D01*
X-0037680D01*
Y0004925D01*
X-0038325D01*
X-0035550Y0006150D02*
X-0033950D01*
Y0004350D01*
X-0034650D01*
X-0034750Y0004450D01*
X-0034850Y0004350D01*
X-0035550D01*
Y0006150D01*
X-0026075Y0006675D02*
Y0007825D01*
X-0025430D01*
Y0006675D01*
X-0026075D01*
X-0034450Y0018350D02*
X-0036050D01*
Y0020150D01*
X-0035350D01*
X-0035250Y0020050D01*
X-0035150Y0020150D01*
X-0034450D01*
Y0018350D01*
X-0030450Y0006600D02*
X-0032050D01*
Y0008400D01*
X-0031350D01*
X-0031250Y0008300D01*
X-0031150Y0008400D01*
X-0030450D01*
Y0006600D01*
X-0032200D02*
X-0033800D01*
Y0008400D01*
X-0033100D01*
X-0033000Y0008300D01*
X-0032900Y0008400D01*
X-0032200D01*
Y0006600D01*
X-0030264Y0001814D02*
X-0030263Y0000100D01*
Y-0000545D01*
X-0031837D01*
X-0031840Y0002260D01*
X-0031660Y0002440D01*
X-0030400D01*
X-0030260Y0002270D01*
X-0030264Y0001814D01*
X-0031204Y0002420D02*
Y0002350D01*
X-0031258Y0002420D02*
Y0002350D01*
X-0031312Y0002420D02*
Y0002350D01*
X-0031366Y0002420D02*
Y0002350D01*
X-0031420Y0002420D02*
Y0002350D01*
X-0031474Y0002420D02*
Y0002350D01*
X-0031528Y0002420D02*
Y0002350D01*
X-0031582Y0002420D02*
Y0002350D01*
X-0031636Y0002420D02*
Y0002350D01*
X-0031690Y0002390D02*
Y0002350D01*
X-0030395Y0002414D02*
X-0031666D01*
X-0030610Y0002420D02*
Y0002350D01*
X-0030664Y0002420D02*
Y0002350D01*
X-0030718Y0002420D02*
Y0002350D01*
X-0030772Y0002420D02*
Y0002350D01*
X-0030826Y0002420D02*
Y0002350D01*
X-0030880Y0002420D02*
Y0002350D01*
X-0030934Y0002420D02*
Y0002350D01*
X-0030988Y0002420D02*
Y0002350D01*
X-0031042Y0002420D02*
Y0002350D01*
X-0031096Y0002420D02*
Y0002350D01*
X-0031150Y0002420D02*
Y0002350D01*
X-0030400Y0002420D02*
X-0031660D01*
X-0030400D02*
X-0030350Y0002360D01*
X-0030320Y0002340D01*
X-0030300Y0002320D01*
X-0030394Y0002413D02*
Y0002350D01*
X-0030448Y0002420D02*
Y0002350D01*
X-0030502Y0002420D02*
Y0002350D01*
X-0030556Y0002420D02*
Y0002350D01*
X-0030350Y0002360D02*
X-0031720D01*
X-0030340D02*
X-0030300Y0002320D01*
X-0030340Y0002360D02*
X-0030350Y0002350D01*
X-0031730D01*
X-0031660Y0002420D02*
X-0031730Y0002350D01*
X-0030333Y0002130D02*
X-0030446D01*
X-0030356Y0002199D02*
Y0002100D01*
X-0030410Y0002206D02*
Y0002093D01*
X-0030340Y0002184D02*
X-0030439D01*
X-0030280Y0001270D02*
X-0031830D01*
X-0024100Y0019550D02*
Y0017950D01*
X-0025900D01*
Y0018650D01*
X-0025800Y0018750D01*
X-0025900Y0018850D01*
Y0019550D01*
X-0024100D01*
X-0008425Y0018325D02*
Y0017175D01*
X-0009070D01*
Y0018325D01*
X-0008425D01*
X-0037575Y0004925D02*
Y0006075D01*
X-0036930D01*
Y0004925D01*
X-0037575D01*
X-0011575Y0017575D02*
X-0010425D01*
Y0016930D01*
X-0011575D01*
Y0017575D01*
X-0025825Y0013675D02*
Y0014825D01*
X-0025180D01*
Y0013675D01*
X-0025825D01*
X-0020100Y0019550D02*
Y0017950D01*
X-0021900D01*
Y0018650D01*
X-0021800Y0018750D01*
X-0021900Y0018850D01*
Y0019550D01*
X-0020100D01*
X-0027075Y0006425D02*
Y0007575D01*
X-0026430D01*
Y0006425D01*
X-0027075D01*
X-0037450Y0006600D02*
X-0039050D01*
Y0008400D01*
X-0038350D01*
X-0038250Y0008300D01*
X-0038150Y0008400D01*
X-0037450D01*
Y0006600D01*
X-0011825Y0014575D02*
X-0010675D01*
Y0013930D01*
X-0011825D01*
Y0014575D01*
X-0014150Y0000100D02*
Y0000150D01*
X-0013500D01*
X-0013350Y0000000D01*
Y-0001150D01*
X-0014150D01*
Y0000100D01*
X-0009900D02*
Y0000150D01*
X-0009250D01*
X-0009100Y0000000D01*
Y-0001150D01*
X-0009900D01*
Y0000100D01*
X-0032250Y0004850D02*
X-0030650D01*
Y0003050D01*
X-0031350D01*
X-0031450Y0003150D01*
X-0031550Y0003050D01*
X-0032250D01*
Y0004850D01*
X-0003925Y0014075D02*
Y0012925D01*
X-0004570D01*
Y0014075D01*
X-0003925D01*
X-0044250Y0004000D02*
X-0045250D01*
Y0002000D01*
X-0044250D01*
Y0004000D01*
X-0041036Y-0000736D02*
X-0042750Y-0000737D01*
X-0043395D01*
Y0000837D01*
X-0040590Y0000840D01*
X-0040410Y0000660D01*
Y-0000600D01*
X-0040580Y-0000740D01*
X-0041036Y-0000736D01*
X-0040430Y-0000066D02*
X-0040500D01*
X-0040430Y-0000120D02*
X-0040500D01*
X-0040430Y-0000174D02*
X-0040500D01*
X-0040430Y-0000228D02*
X-0040500D01*
X-0040430Y-0000282D02*
X-0040500D01*
X-0040430Y-0000336D02*
X-0040500D01*
X-0040430Y-0000390D02*
X-0040500D01*
X-0040430Y-0000444D02*
X-0040500D01*
X-0040430Y-0000498D02*
X-0040500D01*
X-0040430Y-0000552D02*
X-0040500D01*
X-0040437Y-0000606D02*
X-0040500D01*
X-0040430Y0000528D02*
X-0040500D01*
X-0040430Y0000474D02*
X-0040500D01*
X-0040430Y0000420D02*
X-0040500D01*
X-0040430Y0000366D02*
X-0040500D01*
X-0040430Y0000312D02*
X-0040500D01*
X-0040430Y0000258D02*
X-0040500D01*
X-0040430Y0000204D02*
X-0040500D01*
X-0040430Y0000150D02*
X-0040500D01*
X-0040430Y0000096D02*
X-0040500D01*
X-0040430Y0000042D02*
X-0040500D01*
X-0040430Y-0000012D02*
X-0040500D01*
X-0040430Y0000660D02*
Y-0000600D01*
X-0040490Y-0000650D01*
X-0040510Y-0000680D01*
X-0040530Y-0000700D01*
X-0040436Y0000666D02*
Y-0000605D01*
X-0040490Y0000720D02*
Y-0000650D01*
X-0040460Y0000690D02*
X-0040500D01*
X-0040430Y0000636D02*
X-0040500D01*
X-0040430Y0000582D02*
X-0040500D01*
X-0040490Y-0000660D02*
X-0040530Y-0000700D01*
X-0040500Y-0000650D02*
X-0040490Y-0000660D01*
X-0040500Y0000730D02*
Y-0000650D01*
Y0000730D02*
X-0040430Y0000660D01*
X-0040643Y-0000630D02*
X-0040756D01*
X-0040666Y-0000560D02*
Y-0000659D01*
X-0040720Y-0000553D02*
Y-0000666D01*
X-0040650Y-0000576D02*
X-0040749D01*
X-0041580Y-0000720D02*
Y0000830D01*
X-0003325Y0015575D02*
X-0002175D01*
Y0014930D01*
X-0003325D01*
Y0015575D01*
G01X-0037600Y-0000550D02*
G03X-0037660Y-0000610I0000000J0000060D01*
G03X-0037600Y-0000670I0000060J0000000D01*
G03X-0037540Y-0000610I0000000J0000060D01*
G03X-0037600Y-0000550I0000060J0000000D01*
G01X-0006000Y0016158D02*
G03X-0006158Y0016000I0000000J0000158D01*
G03X-0006000Y0015842I0000158J0000000D01*
G03X-0005842Y0016000I0000000J0000158D01*
G03X-0006000Y0016158I0000158J0000000D01*
G01X-0034500Y-0000500D02*
G03X-0034560Y-0000560I0000000J0000060D01*
G03X-0034500Y-0000620I0000060J0000000D01*
G03X-0034440Y-0000560I0000000J0000060D01*
G03X-0034500Y-0000500I0000060J0000000D01*
G01X-0032140Y0002210D02*
G03X-0032200Y0002150I0000000J0000060D01*
G03X-0032140Y0002090I0000060J0000000D01*
G03X-0032080Y0002150I0000000J0000060D01*
G03X-0032140Y0002210I0000060J0000000D01*
G01X-0030390D02*
G03X-0030450Y0002150I0000000J0000060D01*
G03X-0030390Y0002090I0000060J0000000D01*
G03X-0030330Y0002150I0000000J0000060D01*
G03X-0030390Y0002210I0000060J0000000D01*
G01X-0040700Y-0000550D02*
G03X-0040760Y-0000610I0000000J0000060D01*
G03X-0040700Y-0000670I0000060J0000000D01*
G03X-0040640Y-0000610I0000000J0000060D01*
G03X-0040700Y-0000550I0000060J0000000D01*
G54D107*
G01X-0004200Y0016700D02*
Y0015800D01*
X-0004800D01*
Y0016700D01*
X-0004200D01*
M02*
