*
G04 Mass Parameters ***
*
G04 Image ***
*
%IND:\UTENTI\00.CAD\00.PROGETTI\METALTRONICA\22-302-0 (DIMOBIS)\22-302-0 (DIMOBIS)\22-302-0.GND*%
%ICAS*%
%MOIN*%
%IPPOS*%
%ASAXBY*%
G74*%FSLAN2X34Y34*%
*
G04 Aperture Definitions ***
*
%AMTHERMAL77*
1,1,0.1211,0,0,*
1,0,0.0972,0,0,*
21,0,0.1212,0.0100,0,0,135.0*
21,0,0.1212,0.0100,0,0,225.0*%
%AMTHERMAL82*
1,1,0.1172,0,0,*
1,0,0.0933,0,0,*
21,0,0.1173,0.0100,0,0,45.0*
21,0,0.1173,0.0100,0,0,135.0*%
%AMTHERMAL86*
1,1,0.1172,0,0,*
1,0,0.0933,0,0,*
21,0,0.1173,0.0100,0,0,225.0*
21,0,0.1173,0.0100,0,0,315.0*%
%AMTHERMAL93*
1,1,0.1054,0,0,*
1,0,0.0815,0,0,*
21,0,0.1055,0.0100,0,0,135.0*
21,0,0.1055,0.0100,0,0,225.0*%
%AMTHERMAL96*
1,1,0.1172,0,0,*
1,0,0.0933,0,0,*
21,0,0.1173,0.0100,0,0,315.0*
21,0,0.1173,0.0100,0,0,45.0*%
%ADD10R,0.1024X0.0510*%
%ADD11R,0.0380X0.0320*%
%ADD12R,0.0510X0.1024*%
%ADD13R,0.0320X0.0380*%
%ADD14R,0.0787X0.1614*%
%ADD15R,0.0787X0.0787*%
%ADD16R,0.0850X0.1080*%
%ADD17R,0.0197X0.0315*%
%ADD18R,0.0315X0.0197*%
%ADD19R,0.0501X0.0404*%
%ADD20R,0.1500X0.1670*%
%ADD21R,0.1220X0.0905*%
%ADD22C,0.1000*%
%ADD23C,0.0512*%
%ADD24C,0.0866*%
%ADD25C,0.0669*%
%ADD26C,0.0800*%
%ADD27R,0.0800X0.0800*%
%ADD28C,0.0787*%
%ADD29O,0.0630X0.0787*%
%ADD30R,0.1000X0.1000*%
%ADD31R,0.0649X0.0512*%
%ADD32R,0.0118X0.0394*%
%ADD33R,0.0236X0.0413*%
%ADD34C,0.1968*%
%ADD35R,0.0250X0.0350*%
%ADD36R,0.0400X0.0500*%
%ADD37R,0.0710X0.0400*%
%ADD38R,0.0760X0.1200*%
%ADD39R,0.0799X0.0799*%
%ADD40R,0.0600X0.1000*%
%ADD41R,0.2760X0.2760*%
%ADD42O,0.0256X0.0650*%
%ADD43R,0.0354X0.0512*%
%ADD44R,0.0236X0.0512*%
%ADD45O,0.0118X0.0701*%
%ADD46C,0.0394*%
%ADD47R,0.0669X0.0276*%
%ADD48R,0.0165X0.0354*%
%ADD49R,0.0177X0.0590*%
%ADD50C,0.0276*%
%ADD51C,0.0060*%
%ADD52C,0.0100*%
%ADD53C,0.0250*%
%ADD54C,0.0120*%
%ADD55C,0.0276*%
%ADD56C,0.0080*%
%ADD57C,0.0600*%
%ADD58C,0.0150*%
%ADD59C,0.0800*%
%ADD60C,0.0300*%
%ADD61C,0.0276*%
%ADD62C,0.0500*%
%ADD63C,0.0276*%
%ADD64R,0.1080X0.0850*%
%ADD65R,0.0550X0.0350*%
%ADD66R,0.0350X0.0250*%
%ADD67R,0.0500X0.0400*%
%ADD68R,0.0570X0.0590*%
%ADD69O,0.0110X0.0700*%
%ADD70R,0.0110X0.0700*%
%ADD71O,0.0700X0.0110*%
%ADD72R,0.0700X0.0110*%
%ADD73R,0.0394X0.0197*%
%ADD74C,0.0276*%
%ADD75C,0.0110*%
%ADD76C,0.0400*%
%ADD77THERMAL77*%
%ADD78C,0.1181*%
%ADD79C,0.0800*%
%ADD80C,0.1024*%
%ADD81C,0.0866*%
%ADD82THERMAL82*%
%ADD83C,0.1100*%
%ADD84R,0.1100X0.1100*%
%ADD85C,0.1027*%
%ADD86THERMAL86*%
%ADD87C,0.1027*%
%ADD88C,0.0800*%
%ADD89C,0.0984*%
%ADD90C,0.1300*%
%ADD91R,0.1300X0.1300*%
%ADD92C,0.2362*%
%ADD93THERMAL93*%
%ADD94C,0.1027*%
%ADD95C,0.0984*%
%ADD96THERMAL96*%
%ADD97R,0.1027X0.1027*%
%ADD98C,0.0590*%
%ADD99C,0.0050*%
%ADD100C,0.1100*%
%ADD101C,0.0050*%
%ADD102C,0.0394*%
%ADD103C,0.0197*%
%ADD104C,0.0394*%
%ADD105C,0.0050*%
*
G04 Plot Data ***
*
G54D77*
X-0027266Y0003016D03*
X-0028250Y0005968D03*
Y0004000D03*
G54D82*
X-0041000Y0007000D03*
X-0010621Y0003715D03*
X-0029000Y0009250D03*
X-0028000D03*
X-0027000D03*
G54D86*
X-0002750Y0018750D03*
G54D93*
X-0027055Y0011126D03*
X-0029055D03*
X-0031055D03*
X-0033055D03*
G54D96*
X-0023250Y0004250D03*
G54D51*
G01X-0018127Y0019258D02*
Y0019758D01*
X-0018168Y0019258D02*
X-0017918D01*
X-0017835Y0019425D01*
Y0019592D01*
X-0017918Y0019758D01*
X-0018168D01*
X-0018330D02*
Y0019258D01*
X-0018413Y0019342D01*
X-0018580Y0019675D01*
X-0018663Y0019758D01*
Y0019258D01*
X-0018992Y0019508D02*
X-0018825D01*
Y0019342D01*
X-0018867Y0019258D01*
X-0019117D01*
X-0019158Y0019342D01*
Y0019675D01*
X-0019117Y0019758D01*
X-0018867D01*
X-0018825Y0019675D01*
G54D103*
G01X0001500Y0019603D02*
Y-0000713D01*
Y0021335D01*
X0000713Y0022122D02*
X-0045465D01*
X-0046252Y0021335D02*
Y-0000713D01*
X-0045465Y-0001500D02*
X0000713D01*
X0001500Y-0000713D02*
Y0019603D01*
Y0021335D02*
G03X0000713Y0022122I0000787J0000000D01*
G01X-0045465D02*
G03X-0046252Y0021335I0000000J0000787D01*
Y-0000713D02*
G03X-0045465Y-0001500I0000787J0000000D01*
G01X0000713D02*
G03X0001500Y-0000713I0000000J0000787D01*
G54D78*
X-0027266Y0004984D03*
X-0029234D03*
Y0003016D03*
G54D79*
X-0028250Y0000222D03*
G54D80*
X-0026903Y0000750D03*
X-0029596D03*
G54D81*
X-0027758D03*
X-0028742D03*
G54D83*
X-0023250Y0005234D03*
X-0042750Y0005500D03*
X-0041750D03*
X-0028000Y0008250D03*
X-0027000D03*
G54D84*
X-0029000D03*
G54D85*
X-0033055Y0012126D03*
Y0013126D03*
X-0003750Y0018750D03*
Y0017750D03*
X-0002750D03*
X-0001750D03*
G54D87*
X-0002531Y0003742D03*
X-0003516D03*
X-0004500D03*
X-0005484D03*
X-0006468D03*
Y0002758D03*
X-0002531D03*
X-0003516D03*
X-0004500D03*
X-0005484D03*
X-0001750Y0018750D03*
G54D88*
X-0005976Y0002230D03*
G54D89*
X-0009621Y0003715D03*
X-0008621D03*
G54D90*
X-0035750Y0001650D03*
X-0039750D03*
X-0041250D03*
G54D91*
X-0034250D03*
X-0038250D03*
G54D92*
X-0040748Y0018898D03*
Y0009646D03*
X-0014016Y0018898D03*
X-0044685Y0000000D03*
X0000000D03*
G54D94*
X-0027055Y0012126D03*
Y0013126D03*
X-0029055Y0012126D03*
Y0013126D03*
X-0031055Y0012126D03*
Y0013126D03*
G54D95*
X-0030500Y0009000D03*
X-0032000D03*
X-0025500Y0011000D03*
X-0033500Y0009000D03*
X-0017250Y0010250D03*
X-0017000Y0019000D03*
X-0019000Y0018000D03*
X-0012250Y0009500D03*
X-0017750Y0015500D03*
G54D97*
X-0023250Y0003266D03*
G54D98*
X-0041250Y0014250D03*
X-0041750D03*
X-0040250D03*
X-0039750D03*
X-0041750Y0015250D03*
X-0041250D03*
X-0040750D03*
X-0040250D03*
X-0039750D03*
X-0041750Y0013250D03*
X-0041250D03*
X-0040750D03*
X-0040250D03*
X-0039750D03*
X-0041250Y0012250D03*
X-0040750D03*
X-0040250D03*
X-0041250Y0016250D03*
X-0040750D03*
X-0040250D03*
G54D99*
X-0040750Y0014250D03*
G54D100*
X-0037250Y0004000D03*
X-0036250D03*
X-0041250D03*
X-0043250D03*
G54D101*
X-0019350Y0013800D03*
X-0032000Y0014250D03*
X-0030500Y0014150D03*
X-0029250D03*
X-0028400D03*
X-0000950Y0009850D03*
X-0001300Y0010550D03*
X-0002800Y0010500D03*
X-0007150Y0009100D03*
X-0008600Y0008350D03*
X-0026320Y0006720D03*
X-0029150Y0006250D03*
X-0034750Y0010000D03*
X-0032000Y0019050D03*
X-0037500Y0012000D03*
X-0036240Y0009860D03*
X-0037750Y0010350D03*
X-0023500Y0017700D03*
X-0026750Y0014150D03*
X-0023550Y0016250D03*
X-0035650Y0018300D03*
X-0019400Y0015800D03*
X-0014550Y0013150D03*
X-0015200Y0003670D03*
X-0014000Y0002750D03*
X-0035750Y0015750D03*
X-0013250Y0002750D03*
X-0012000Y0004350D03*
X-0009900Y0004750D03*
X-0011400Y0004350D03*
X-0007400Y0006600D03*
X-0006950Y0005530D03*
X-0008700Y0002800D03*
X-0007300Y0003200D03*
X-0035650Y0016300D03*
X-0035637Y0008400D03*
X-0035600Y0007050D03*
X-0011750Y0010550D03*
X-0013000Y0008750D03*
X-0032150Y0007050D03*
X-0033250Y0006250D03*
X-0026350Y0017300D03*
X-0028018Y0019100D03*
X-0026500Y0019250D03*
X-0014850Y0005850D03*
X-0014400Y0006250D03*
X-0015250Y0008750D03*
X-0014500D03*
X-0015238Y0004950D03*
X-0015750Y0004400D03*
X-0021550Y0011970D03*
X-0022500Y0012882D03*
X-0025850Y0013500D03*
X-0023630Y0013860D03*
X-0038053Y0016950D03*
X-0024100Y-0000100D03*
X-0022700D03*
X-0021350D03*
X-0038800Y0004800D03*
X-0036900Y0007550D03*
X-0038650D03*
X-0011750Y0019000D03*
X-0020750Y0006850D03*
X-0020500Y0005100D03*
Y0003150D03*
X-0011700Y0012550D03*
X-0024750Y0012850D03*
X-0005800Y0010500D03*
X-0042700Y0012000D03*
X-0043447Y0016950D03*
X-0025000Y0014900D03*
X-0022250Y0014100D03*
X-0024050Y0018350D03*
Y0017750D03*
X-0021100Y0015800D03*
X-0014350Y0001000D03*
X-0016000Y0001200D03*
X-0018500Y0003150D03*
X-0022500Y0007500D03*
X-0024245Y0006300D03*
X-0002750Y0016750D03*
X-0002850Y0014750D03*
X-0002750Y0016200D03*
X-0004300Y0010500D03*
X-0012250Y0017250D03*
X-0013000Y0013050D03*
X-0011750Y0015500D03*
X-0024500Y0008950D03*
X-0024250Y0011500D03*
X-0045400Y0017400D03*
X-0044500Y0018500D03*
X-0045400Y0019500D03*
X-0013000Y0010550D03*
X-0011700Y0017250D03*
X-0022750Y0017700D03*
X-0016750Y0015500D03*
G54D102*
X-0021750Y0005050D03*
X-0027500Y0016950D03*
X-0017100Y0009100D03*
X-0026350Y0004050D03*
Y0005500D03*
X-0026300Y0007400D03*
X-0023350Y0014950D03*
X-0021300Y0013500D03*
X-0023650D03*
X-0005000Y0009500D03*
X-0002000D03*
X-0006500Y0019000D03*
X-0011750Y0018000D03*
X-0012000Y0015000D03*
X-0014050Y0008800D03*
X-0037400Y0017300D03*
X-0036400Y0017900D03*
X-0031500Y0015000D03*
X-0044150Y0012500D03*
X-0028500Y0007000D03*
X-0025950Y0015838D03*
X-0035300Y0005000D03*
X-0030600Y0003000D03*
X-0023000Y0002000D03*
X-0018250Y0012600D03*
X-0015090Y0013210D03*
X-0017000Y0007750D03*
X-0025750Y0006550D03*
X-0015800Y0014000D03*
X-0014750D03*
X-0010250Y0007050D03*
Y0008450D03*
X-0017100Y0012000D03*
X-0025950Y0016720D03*
X-0026500Y0017750D03*
X-0007350Y0013250D03*
X-0007800Y0020500D03*
X-0010100Y0012400D03*
X-0003960Y0007510D03*
X-0026400Y0010350D03*
X-0023880Y0014460D03*
X-0021650Y0014300D03*
X-0021600Y0016500D03*
X-0022550Y0019700D03*
X-0007600Y0015300D03*
X-0003500Y0009500D03*
X-0020350Y0015200D03*
X-0023250Y0012700D03*
X-0028500Y0009900D03*
X-0032500Y0010100D03*
X-0032238Y0016760D03*
X-0006050Y0009500D03*
X-0028300Y0017900D03*
X-0025450Y0019800D03*
X-0034800Y0019850D03*
X-0030400Y0007850D03*
X-0031100Y0009950D03*
X-0029950D03*
X-0029850Y0016750D03*
X-0044000Y0014000D03*
X-0037500Y0014100D03*
X-0014850Y0016200D03*
X-0021500Y0020100D03*
X-0036500Y0006500D03*
X-0031740Y0017770D03*
X0000300Y0021350D03*
X0000500Y0012000D03*
X-0024850Y0016650D03*
X-0037000Y0009000D03*
X-0009050Y0019350D03*
X-0007650Y0019000D03*
X-0012400Y0013850D03*
X-0012970Y0012430D03*
X-0017600Y0001250D03*
X-0008000Y0015350D03*
X-0005510Y0007510D03*
X-0023850Y0015050D03*
X-0022000Y0021500D03*
X-0032100Y0021150D03*
X-0031600Y0016750D03*
X-0030940Y0017420D03*
X-0029900Y0016200D03*
X-0006550Y0009100D03*
X-0009950Y0010950D03*
X-0036100Y0020700D03*
X-0007100Y0014850D03*
X-0013350Y0006250D03*
X-0012700Y0003750D03*
X-0020750Y0011750D03*
X-0020650Y0016300D03*
X-0005750Y0020050D03*
X-0007850Y0012700D03*
X-0000700Y0010400D03*
X-0027200Y0018050D03*
X-0029400Y0018450D03*
X-0013050Y0001200D03*
X-0030400Y0007050D03*
X-0023750Y0007450D03*
X-0002510Y0007510D03*
X-0014050Y0015550D03*
X-0016000Y0010250D03*
X-0021400Y0021200D03*
X-0021500Y0014950D03*
X-0017000Y0004650D03*
X-0019000Y0020500D03*
X-0029950Y0020850D03*
Y0018650D03*
X-0002950Y0009000D03*
X-0030500Y0017750D03*
Y0020850D03*
X-0033500D03*
Y0018000D03*
X-0009800Y0016600D03*
X-0008400Y0018500D03*
X-0035420Y0011280D03*
X-0025750Y0004550D03*
X-0032450Y0019400D03*
X-0034000Y0018000D03*
X-0014800Y0015550D03*
X-0014000Y0010000D03*
X-0015000D03*
X-0021400Y0009000D03*
X-0022250D03*
X-0023000D03*
X-0021400Y0009700D03*
X-0022250D03*
X-0023000D03*
X-0021400Y0010350D03*
X-0022250D03*
X-0023000D03*
X-0021400Y0011000D03*
X-0022250D03*
X-0023000D03*
X-0036900Y0012400D03*
Y0011700D03*
Y0010700D03*
X-0035450Y0010750D03*
Y0011800D03*
Y0012400D03*
G54D104*
X-0004150Y0009500D03*
X-0000400Y0015650D03*
X-0004550D03*
X-0044050Y0015500D03*
X-0037400Y0015750D03*
X0000000Y0007500D03*
X-0009050Y0013200D03*
X-0010900Y0007850D03*
X-0022550Y0006550D03*
X-0032500D03*
X-0036500Y0019820D03*
X-0025250Y0012500D03*
X-0022750Y0012350D03*
X-0001000Y0007500D03*
X-0020950Y0016970D03*
X-0037300Y0012650D03*
X-0014200Y0001350D03*
X-0016850Y0003500D03*
X-0034850Y0015000D03*
X-0013600Y0001950D03*
X-0007900Y0014450D03*
X-0036600Y0016300D03*
X-0044000Y0014500D03*
X-0044100Y0021650D03*
X-0000500Y0021700D03*
X-0013450Y0014000D03*
X-0019050Y0014250D03*
X-0023400Y0019200D03*
X-0020100Y0018650D03*
X-0008100Y0007400D03*
X-0009300D03*
X-0015550Y0001700D03*
X-0012450Y0000500D03*
X-0009050Y0015900D03*
X-0006350Y0013900D03*
X-0020100Y0020950D03*
X-0015950Y0001700D03*
X-0008700Y0007400D03*
X-0009150Y0011350D03*
X-0009000Y0013850D03*
X-0015140Y0001512D03*
X-0017300Y0000250D03*
X-0035950Y0004900D03*
X-0036300Y0013500D03*
X-0044000D03*
X-0017750Y0009350D03*
X-0037950Y0004800D03*
X-0006650Y0014400D03*
X-0025950Y0020800D03*
X-0008600Y0014400D03*
X-0033000Y0003000D03*
X-0037250Y0019820D03*
X-0035750Y0019700D03*
X-0009300Y0014500D03*
X-0013050Y0000500D03*
X-0035700Y0017750D03*
G54D105*
X-0043447Y0011503D03*
X-0044150Y0012000D03*
M02*
