%
T1C0.0079F200S100
X-045400Y017400
X-044500Y018500
X-045400Y019500
X-044150Y012000
X-044150Y012500
X-044100Y021650
X-044050Y015500
X-044000Y013500
X-044000Y014000
X-044000Y014500
X-043447Y011503
X-042700Y012000
X-043447Y016950
X-038800Y004800
X-038650Y007550
X-038053Y016950
X-037950Y004800
X-037750Y010350
X-037500Y012000
X-037500Y014100
X-037400Y015750
X-037400Y017300
X-037300Y012650
X-037250Y019820
X-037000Y009000
X-036900Y007550
X-036900Y010700
X-036900Y011700
X-036900Y012400
X-036600Y016300
X-036500Y006500
X-036400Y017900
X-036500Y019820
X-036300Y013500
X-036240Y009860
X-036100Y020700
X-035950Y004900
X-035750Y015750
X-035700Y017750
X-035750Y019700
X-035650Y016300
X-035650Y018300
X-035637Y008400
X-035600Y007050
X-035450Y010750
X-035450Y011800
X-035450Y012400
X-035420Y011280
X-035300Y005000
X-034850Y015000
X-034800Y019850
X-034750Y010000
X-034000Y018000
X-033500Y018000
X-033500Y020850
X-033250Y006250
X-033000Y003000
X-032500Y006550
X-032500Y010100
X-032450Y019400
X-032238Y016760
X-032150Y007050
X-032100Y021150
X-032000Y014250
X-031740Y017770
X-032000Y019050
X-031600Y016750
X-031500Y015000
X-031100Y009950
X-030940Y017420
X-030600Y003000
X-030500Y014150
X-030500Y017750
X-030500Y020850
X-030400Y007050
X-030400Y007850
X-029950Y009950
X-029950Y018650
X-029950Y020850
X-029900Y016200
X-029850Y016750
X-029400Y018450
X-029250Y014150
X-029150Y006250
X-028500Y007000
X-028500Y009900
X-028400Y014150
X-028300Y017900
X-028018Y019100
X-027500Y016950
X-027200Y018050
X-026750Y014150
X-026500Y017750
X-026500Y019250
X-026400Y010350
X-026350Y004050
X-026350Y005500
X-026320Y006720
X-026350Y017300
X-026300Y007400
X-025950Y015838
X-025950Y016720
X-025950Y020800
X-025850Y013500
X-025750Y004550
X-025750Y006550
X-025450Y019800
X-025250Y012500
X-025000Y014900
X-024850Y016650
X-024750Y012850
X-024500Y008950
X-024250Y011500
X-024245Y006300
X-024100Y-000100
X-024050Y017750
X-024050Y018350
X-023880Y014460
X-023850Y015050
X-023750Y007450
X-023650Y013500
X-023630Y013860
X-023550Y016250
X-023500Y017700
X-023400Y019200
X-023350Y014950
X-023250Y012700
X-023000Y002000
X-023000Y009000
X-023000Y009700
X-023000Y010350
X-023000Y011000
X-022750Y012350
X-022750Y017700
X-022700Y-000100
X-022550Y006550
X-022550Y019700
X-022500Y007500
X-022250Y009000
X-022250Y009700
X-022250Y010350
X-022250Y011000
X-022500Y012882
X-022250Y014100
X-022000Y021500
X-021750Y005050
X-021650Y014300
X-021600Y016500
X-021550Y011970
X-021500Y014950
X-021500Y020100
X-021400Y009000
X-021400Y009700
X-021400Y010350
X-021400Y011000
X-021400Y021200
X-021350Y-000100
X-021300Y013500
X-021100Y015800
X-020950Y016970
X-020750Y006850
X-020750Y011750
X-020650Y016300
X-020500Y003150
X-020500Y005100
X-020350Y015200
X-020100Y018650
X-020100Y020950
X-019400Y015800
X-019350Y013800
X-019050Y014250
X-019000Y020500
X-018500Y003150
X-018250Y012600
X-017750Y009350
X-017600Y001250
X-017300Y000250
X-017100Y009100
X-017100Y012000
X-017000Y004650
X-016850Y003500
X-017000Y007750
X-016750Y015500
X-016000Y001200
X-016000Y010250
X-015950Y001700
X-015800Y014000
X-015750Y004400
X-015550Y001700
X-015250Y008750
X-015238Y004950
X-015200Y003670
X-015140Y001512
X-015090Y013210
X-015000Y010000
X-014850Y005850
X-014800Y015550
X-014850Y016200
X-014750Y014000
X-014550Y013150
X-014500Y008750
X-014400Y006250
X-014350Y001000
X-014200Y001350
X-014050Y008800
X-014000Y002750
X-014000Y010000
X-014050Y015550
X-013600Y001950
X-013450Y014000
X-013350Y006250
X-013250Y002750
X-013050Y000500
X-013050Y001200
X-013000Y008750
X-013000Y010550
X-013000Y013050
X-012970Y012430
X-012700Y003750
X-012450Y000500
X-012400Y013850
X-012250Y017250
X-012000Y004350
X-012000Y015000
X-011750Y010550
X-011700Y012550
X-011750Y015500
X-011700Y017250
X-011750Y018000
X-011750Y019000
X-011400Y004350
X-010900Y007850
X-010250Y007050
X-010250Y008450
X-010100Y012400
X-009950Y010950
X-009900Y004750
X-009800Y016600
X-009300Y007400
X-009300Y014500
X-009150Y011350
X-009050Y013200
X-009050Y015900
X-009050Y019350
X-009000Y013850
X-008700Y002800
X-008700Y007400
X-008600Y008350
X-008600Y014400
X-008400Y018500
X-008100Y007400
X-008000Y015350
X-007900Y014450
X-007850Y012700
X-007800Y020500
X-007650Y019000
X-007600Y015300
X-007400Y006600
X-007350Y013250
X-007300Y003200
X-007150Y009100
X-007100Y014850
X-006950Y005530
X-006650Y014400
X-006550Y009100
X-006500Y019000
X-006350Y013900
X-006050Y009500
X-005800Y010500
X-005750Y020050
X-005510Y007510
X-005000Y009500
X-004550Y015650
X-004300Y010500
X-004150Y009500
X-003960Y007510
X-003500Y009500
X-002950Y009000
X-002850Y014750
X-002800Y010500
X-002750Y016200
X-002750Y016750
X-002510Y007510
X-002000Y009500
X-001300Y010550
X-001000Y007500
X-000950Y009850
X-000700Y010400
X-000500Y021700
X-000400Y015650
X000000Y007500
X000300Y021350
X000500Y012000
T4C0.0472F200S100
X-041250Y001650
X-039750Y001650
X-038250Y001650
X-035750Y001650
X-034250Y001650
X-029234Y003016
X-029234Y004984
X-028742Y000750
X-028250Y004000
X-028250Y005968
X-027758Y000750
X-027266Y003016
X-027266Y004984
X-006468Y002758
X-005484Y002758
X-005484Y003742
X-006468Y003742
X-004500Y002758
X-004500Y003742
X-003516Y002758
X-003516Y003742
X-002531Y002758
X-002531Y003742
T3C0.0433F200S100
X-043250Y004000
X-042750Y005500
X-041750Y005500
X-041250Y004000
X-041000Y007000
X-037250Y004000
X-036250Y004000
X-033500Y009000
X-032000Y009000
X-030500Y009000
X-029000Y008250
X-029000Y009250
X-028000Y008250
X-028000Y009250
X-027000Y008250
X-027000Y009250
X-025500Y011000
X-023250Y003266
X-023250Y004250
X-023250Y005234
X-019000Y018000
X-017750Y015500
X-017250Y010250
X-017000Y019000
X-012250Y009500
X-010621Y003715
X-009621Y003715
X-008621Y003715
X-003750Y017750
X-003750Y018750
X-002750Y017750
X-002750Y018750
X-001750Y017750
X-001750Y018750
T2C0.0315F200S100
X-041750Y013250
X-041750Y014250
X-041750Y015250
X-041250Y012250
X-041250Y013250
X-041250Y014250
X-041250Y015250
X-041250Y016250
X-040750Y012250
X-040250Y012250
X-040250Y013250
X-040750Y013250
X-040750Y014250
X-040250Y014250
X-040250Y015250
X-040750Y015250
X-040750Y016250
X-040250Y016250
X-039750Y013250
X-039750Y014250
X-039750Y015250
X-033055Y011126
X-033055Y012126
X-033055Y013126
X-031055Y011126
X-031055Y012126
X-031055Y013126
X-029055Y011126
X-029055Y012126
X-029055Y013126
X-027055Y011126
X-027055Y012126
X-027055Y013126
T6C0.0630F200S100
X-029596Y000750
X-026903Y000750
T7C0.1063F200S100
X-044685Y000000
X-040748Y009646
X-040748Y018898
X-014016Y018898
X000000Y000000
M30
